<svg width="60" height="60" viewBox="0 0 60 60" fill="none" xmlns="http://www.w3.org/2000/svg">
<g clip-path="url(#clip0_594_54)">
<path d="M48.75 37.5C48.2575 37.4997 47.7697 37.5965 47.3146 37.7849C46.8595 37.9732 46.446 38.2495 46.0977 38.5977C45.7495 38.946 45.4732 39.3595 45.2849 39.8146C45.0965 40.2697 44.9997 40.7575 45 41.25V52.5H7.5V15H18.75C19.7446 15 20.6984 14.6049 21.4017 13.9017C22.1049 13.1984 22.5 12.2446 22.5 11.25C22.5 10.2554 22.1049 9.30161 21.4017 8.59835C20.6984 7.89509 19.7446 7.5 18.75 7.5H3.75C3.25747 7.49972 2.7697 7.59653 2.31461 7.78488C1.85951 7.97324 1.446 8.24945 1.09773 8.59773C0.749452 8.946 0.47324 9.35951 0.284883 9.81461C0.0965272 10.2697 -0.000278738 10.7575 6.02822e-07 11.25V56.25C-0.000278738 56.7425 0.0965272 57.2303 0.284883 57.6854C0.47324 58.1405 0.749452 58.554 1.09773 58.9023C1.446 59.2505 1.85951 59.5268 2.31461 59.7151C2.7697 59.9035 3.25747 60.0003 3.75 60H48.75C49.2425 60.0003 49.7303 59.9035 50.1854 59.7151C50.6405 59.5268 51.054 59.2505 51.4023 58.9023C51.7505 58.554 52.0268 58.1405 52.2151 57.6854C52.4035 57.2303 52.5003 56.7425 52.5 56.25V41.25C52.5003 40.7575 52.4035 40.2697 52.2151 39.8146C52.0268 39.3595 51.7505 38.946 51.4023 38.5977C51.054 38.2495 50.6405 37.9732 50.1854 37.7849C49.7303 37.5965 49.2425 37.4997 48.75 37.5Z" fill="#4C4E6A"/>
<path d="M58.9014 8.59862L51.4014 1.09862C51.0533 0.750325 50.6399 0.474033 50.185 0.285529C49.7301 0.0970239 49.2424 0 48.75 0C48.2576 0 47.7699 0.0970239 47.315 0.285529C46.8601 0.474033 46.4467 0.750325 46.0986 1.09862L23.5986 23.5986C23.2503 23.9467 22.9739 24.36 22.7854 24.815C22.5969 25.2699 22.4999 25.7575 22.5 26.25V33.75C22.4997 34.2425 22.5965 34.7303 22.7849 35.1854C22.9732 35.6405 23.2495 36.054 23.5977 36.4023C23.946 36.7505 24.3595 37.0268 24.8146 37.2151C25.2697 37.4035 25.7575 37.5003 26.25 37.5H33.75C34.2425 37.5001 34.7301 37.4031 35.185 37.2146C35.64 37.0261 36.0533 36.7497 36.4014 36.4014L58.9014 13.9014C59.2497 13.5532 59.526 13.1399 59.7145 12.685C59.903 12.23 60 11.7424 60 11.25C60 10.7576 59.903 10.2699 59.7145 9.81501C59.526 9.36007 59.2497 8.94674 58.9014 8.59862ZM32.1972 30H30V27.8027L48.75 9.05274L50.9473 11.25L32.1972 30Z" fill="#4C4E6A"/>
</g>
<defs>
<clipPath id="clip0_594_54">
<rect width="60" height="60" fill="white"/>
</clipPath>
</defs>
</svg>
