<svg width="45" height="30" viewBox="0 0 45 30" fill="none" xmlns="http://www.w3.org/2000/svg">
<path fill-rule="evenodd" clip-rule="evenodd" d="M0 2.5C0 1.1193 1.1193 0 2.5 0H42.5C43.8807 0 45 1.1193 45 2.5C45 3.8807 43.8807 5 42.5 5H2.5C1.1193 5 0 3.8807 0 2.5ZM7.5 15C7.5 13.6193 8.6193 12.5 10 12.5H35C36.3807 12.5 37.5 13.6193 37.5 15C37.5 16.3807 36.3807 17.5 35 17.5H10C8.6193 17.5 7.5 16.3807 7.5 15ZM15 27.5C15 26.1193 16.1193 25 17.5 25H27.5C28.8807 25 30 26.1193 30 27.5C30 28.8807 28.8807 30 27.5 30H17.5C16.1193 30 15 28.8807 15 27.5Z" fill="white"/>
</svg>
