<svg width="20" height="23" viewBox="0 0 20 23" fill="none" xmlns="http://www.w3.org/2000/svg">
<path d="M14.8267 3.93337L14.8268 3.93338C16.4656 5.56091 18.8333 8.97459 18.8333 13.3173C18.8333 18.0134 14.7604 21.875 9.66667 21.875C4.57291 21.875 0.5 18.0134 0.5 13.3173C0.5 7.48642 3.89527 3.25657 6.46315 1.15108L6.14613 0.764433L6.46315 1.15108C6.49555 1.12452 6.51234 1.12497 6.51334 1.125L6.51338 1.125C6.51728 1.12495 6.52661 1.12603 6.53945 1.13538C6.5526 1.14496 6.56501 1.16038 6.57201 1.18036C6.57811 1.1978 6.58281 1.22621 6.57031 1.2692C5.64263 4.45919 5.71053 6.50539 6.31783 7.75687C6.94435 9.04797 8.0934 9.399 9.00905 9.28843C10.4072 9.27523 11.592 8.42032 12.5056 7.39614C13.4352 6.35417 14.1563 5.05859 14.6204 4.00854L14.6204 4.00853C14.6436 3.95614 14.6889 3.92206 14.7354 3.91101C14.7768 3.90117 14.8042 3.91101 14.8267 3.93337Z" fill="url(#paint0_linear_22_1489)" stroke="#FF0000"/>
<defs>
<linearGradient id="paint0_linear_22_1489" x1="9.66667" y1="0.625" x2="9.66667" y2="22.375" gradientUnits="userSpaceOnUse">
<stop offset="0.385" stop-color="#FF8A00"/>
<stop offset="0.7" stop-color="#F2B834"/>
<stop offset="1" stop-color="#FFF96F"/>
</linearGradient>
</defs>
</svg>
