<svg width="126" height="26" viewBox="0 0 126 26" fill="none" xmlns="http://www.w3.org/2000/svg">
<path d="M9.3332 7.8332H9.3439M13.0375 3.5H10.1359C8.33816 3.5 7.4393 3.5 6.75266 3.84986C6.14867 4.15761 5.65761 4.64867 5.34986 5.25266C5 5.9393 5 6.83816 5 8.6359V11.5375C5 12.3225 5 12.7151 5.08869 13.0846C5.16732 13.4121 5.29702 13.7252 5.47302 14.0124C5.67152 14.3363 5.9491 14.6139 6.50427 15.1691L11.5332 20.198C12.8043 21.4691 13.44 22.1048 14.1728 22.3429C14.8176 22.5524 15.512 22.5524 16.1568 22.3429C16.8896 22.1048 17.5253 21.4691 18.7964 20.198L21.698 17.2964C22.9691 16.0253 23.6048 15.3896 23.8429 14.6568C24.0524 14.012 24.0524 13.3176 23.8429 12.6728C23.6048 11.94 22.9691 11.3043 21.698 10.0332L16.6691 5.00427C16.1139 4.4491 15.8363 4.17152 15.5124 3.97302C15.2252 3.79702 14.9121 3.66732 14.5846 3.58869C14.2151 3.5 13.8225 3.5 13.0375 3.5ZM9.86819 7.8332C9.86819 8.12868 9.62868 8.36819 9.3332 8.36819C9.03774 8.36819 8.79821 8.12868 8.79821 7.8332C8.79821 7.53774 9.03774 7.29821 9.3332 7.29821C9.62868 7.29821 9.86819 7.53774 9.86819 7.8332Z" stroke="#0ABFFF" stroke-width="2" stroke-linecap="round" stroke-linejoin="round"/>
<path d="M35.12 17.9198H44.6C44.88 17.9198 45.02 18.0598 45.02 18.3398V19.5798C45.02 19.8598 44.88 19.9998 44.6 19.9998H33.04C32.76 19.9998 32.62 19.8598 32.62 19.5798V6.41982C32.62 6.13982 32.76 5.99982 33.04 5.99982H34.68C34.9733 5.99982 35.12 6.13982 35.12 6.41982V17.9198ZM46.8755 5.69982C46.8755 5.44649 47.0088 5.31982 47.2755 5.31982H48.7755C49.0421 5.31982 49.1755 5.44649 49.1755 5.69982V7.25982C49.1755 7.51315 49.0421 7.63982 48.7755 7.63982H47.2755C47.0088 7.63982 46.8755 7.51315 46.8755 7.25982V5.69982ZM46.8755 9.85982C46.8755 9.60649 47.0088 9.47982 47.2755 9.47982H48.7755C49.0421 9.47982 49.1755 9.60649 49.1755 9.85982V19.6198C49.1755 19.8731 49.0421 19.9998 48.7755 19.9998H47.2755C47.0088 19.9998 46.8755 19.8731 46.8755 19.6198V9.85982ZM54.0475 12.9398C54.0475 13.2465 54.1275 13.4665 54.2875 13.5998C54.4475 13.7198 54.7008 13.7798 55.0475 13.7798H59.4475C59.9408 13.7798 60.3608 13.8265 60.7075 13.9198C61.0675 13.9998 61.3542 14.1465 61.5675 14.3598C61.7942 14.5598 61.9608 14.8331 62.0675 15.1798C62.1742 15.5131 62.2275 15.9331 62.2275 16.4398V17.3398C62.2275 18.3265 62.0075 19.0198 61.5675 19.4198C61.1408 19.8065 60.4342 19.9998 59.4475 19.9998H54.3275C53.3408 19.9998 52.6275 19.7931 52.1875 19.3798C51.7608 18.9665 51.5475 18.2931 51.5475 17.3598V17.2198C51.5475 16.9798 51.6808 16.8598 51.9475 16.8598H53.3875C53.6542 16.8598 53.7875 16.9798 53.7875 17.2198V17.3198C53.7875 17.6265 53.8675 17.8398 54.0275 17.9598C54.1875 18.0665 54.4342 18.1198 54.7675 18.1198H58.9275C59.2742 18.1198 59.5275 18.0598 59.6875 17.9398C59.8475 17.8065 59.9275 17.5798 59.9275 17.2598V16.4998C59.9275 15.9131 59.5942 15.6198 58.9275 15.6198H54.5075C54.0142 15.6198 53.5942 15.5798 53.2475 15.4998C52.9008 15.4065 52.6142 15.2598 52.3875 15.0598C52.1742 14.8465 52.0142 14.5731 51.9075 14.2398C51.8008 13.8931 51.7475 13.4665 51.7475 12.9598V12.1398C51.7475 11.1531 51.9608 10.4665 52.3875 10.0798C52.8142 9.67982 53.5208 9.47982 54.5075 9.47982H59.2075C60.1675 9.47982 60.8608 9.68649 61.2875 10.0998C61.7275 10.5131 61.9475 11.1865 61.9475 12.1198V12.2598C61.9475 12.4998 61.8208 12.6198 61.5675 12.6198H60.1075C59.8542 12.6198 59.7275 12.4998 59.7275 12.2598V12.1598C59.7275 11.8665 59.6475 11.6598 59.4875 11.5398C59.3275 11.4198 59.0808 11.3598 58.7475 11.3598H55.0475C54.7008 11.3598 54.4475 11.4265 54.2875 11.5598C54.1275 11.6798 54.0475 11.8998 54.0475 12.2198V12.9398ZM67.527 11.3798V16.8598C67.527 17.1265 67.5404 17.3398 67.567 17.4998C67.607 17.6598 67.667 17.7865 67.747 17.8798C67.8404 17.9598 67.9604 18.0198 68.107 18.0598C68.2537 18.0865 68.4404 18.0998 68.667 18.0998H70.167C70.4204 18.0998 70.547 18.2265 70.547 18.4798V19.6198C70.547 19.8731 70.4204 19.9998 70.167 19.9998H68.027C67.027 19.9998 66.307 19.7931 65.867 19.3798C65.4404 18.9665 65.227 18.2798 65.227 17.3198V11.3798H64.027C63.7737 11.3798 63.647 11.2531 63.647 10.9998V9.85982C63.647 9.60649 63.7737 9.47982 64.027 9.47982H65.227V7.17982C65.227 6.92649 65.3537 6.79982 65.607 6.79982H67.127C67.3937 6.79982 67.527 6.92649 67.527 7.17982V9.47982H70.167C70.4204 9.47982 70.547 9.60649 70.547 9.85982V10.9998C70.547 11.2531 70.4204 11.3798 70.167 11.3798H67.527ZM72.8325 5.69982C72.8325 5.44649 72.9658 5.31982 73.2325 5.31982H74.7325C74.9992 5.31982 75.1325 5.44649 75.1325 5.69982V7.25982C75.1325 7.51315 74.9992 7.63982 74.7325 7.63982H73.2325C72.9658 7.63982 72.8325 7.51315 72.8325 7.25982V5.69982ZM72.8325 9.85982C72.8325 9.60649 72.9658 9.47982 73.2325 9.47982H74.7325C74.9992 9.47982 75.1325 9.60649 75.1325 9.85982V19.6198C75.1325 19.8731 74.9992 19.9998 74.7325 19.9998H73.2325C72.9658 19.9998 72.8325 19.8731 72.8325 19.6198V9.85982ZM86.2245 12.7998C86.2245 12.5065 86.2045 12.2665 86.1645 12.0798C86.1245 11.8931 86.0445 11.7531 85.9245 11.6598C85.8045 11.5531 85.6312 11.4798 85.4045 11.4398C85.1912 11.3998 84.9045 11.3798 84.5445 11.3798H82.6445C81.8445 11.3798 81.2779 11.5398 80.9445 11.8598C80.6245 12.1665 80.4645 12.6598 80.4645 13.3398V19.6198C80.4645 19.8731 80.3312 19.9998 80.0645 19.9998H78.5645C78.2979 19.9998 78.1645 19.8731 78.1645 19.6198V9.85982C78.1645 9.60649 78.2979 9.47982 78.5645 9.47982H79.8045C80.0579 9.47982 80.1845 9.60649 80.1845 9.85982V11.2798C80.5712 10.0798 81.5512 9.47982 83.1245 9.47982H85.5445C86.5845 9.47982 87.3379 9.70649 87.8045 10.1598C88.2845 10.6131 88.5245 11.3398 88.5245 12.3398V19.6198C88.5245 19.8731 88.3979 19.9998 88.1445 19.9998H86.6245C86.3579 19.9998 86.2245 19.8731 86.2245 19.6198V12.7998ZM94.1263 19.9998C93.0863 19.9998 92.3263 19.7731 91.8463 19.3198C91.3796 18.8665 91.1463 18.1398 91.1463 17.1398V12.3398C91.1463 11.3398 91.3796 10.6131 91.8463 10.1598C92.3263 9.70649 93.0863 9.47982 94.1263 9.47982H96.7863C98.3063 9.47982 99.2796 10.0465 99.7063 11.1798V9.85982C99.7063 9.60649 99.8396 9.47982 100.106 9.47982H101.366C101.62 9.47982 101.746 9.60649 101.746 9.85982V20.9598C101.746 21.9865 101.473 22.7598 100.926 23.2798C100.38 23.8131 99.5729 24.0798 98.5063 24.0798H94.1263C93.1529 24.0798 92.4463 23.8798 92.0063 23.4798C91.5796 23.0931 91.3663 22.4265 91.3663 21.4798V21.3198C91.3663 21.0798 91.4929 20.9598 91.7463 20.9598H93.1863C93.4529 20.9598 93.5863 21.0798 93.5863 21.3198V21.5398C93.5863 21.8198 93.6596 22.0131 93.8063 22.1198C93.9663 22.2398 94.2063 22.2998 94.5263 22.2998H97.6663C98.0263 22.2998 98.3196 22.2731 98.5463 22.2198C98.7863 22.1665 98.9663 22.0798 99.0863 21.9598C99.2196 21.8398 99.3129 21.6798 99.3663 21.4798C99.4196 21.2798 99.4463 21.0265 99.4463 20.7198V18.6198C98.9796 19.5398 98.0529 19.9998 96.6663 19.9998H94.1263ZM95.1263 11.3798C94.7663 11.3798 94.4729 11.3998 94.2463 11.4398C94.0329 11.4798 93.8596 11.5531 93.7263 11.6598C93.6063 11.7531 93.5263 11.8931 93.4863 12.0798C93.4463 12.2665 93.4263 12.5065 93.4263 12.7998V16.6798C93.4263 16.9731 93.4463 17.2131 93.4863 17.3998C93.5263 17.5865 93.6063 17.7331 93.7263 17.8398C93.8596 17.9331 94.0329 17.9998 94.2463 18.0398C94.4729 18.0798 94.7663 18.0998 95.1263 18.0998H97.2663C98.0663 18.0998 98.6263 17.9465 98.9463 17.6398C99.2796 17.3198 99.4463 16.8198 99.4463 16.1398V13.3398C99.4463 12.6598 99.2796 12.1665 98.9463 11.8598C98.6263 11.5398 98.0663 11.3798 97.2663 11.3798H95.1263Z" fill="#0ABFFF"/>
</svg>
