<svg width="126" height="26" viewBox="0 0 126 26" fill="none" xmlns="http://www.w3.org/2000/svg">
<path d="M48.2 2.5H51.75V20H48.325V8.65L43.4 16.775H43L38.075 8.675V20H34.625V2.5H38.175L43.2 10.775L48.2 2.5ZM56.4607 6.4C55.3857 6.4 54.4857 5.525 54.4857 4.475C54.4857 3.425 55.3857 2.525 56.4607 2.525C57.5607 2.525 58.4607 3.425 58.4607 4.475C58.4607 5.525 57.5607 6.4 56.4607 6.4ZM58.0857 20H54.8607V7.5H58.0857V20ZM67.9875 7.15C69.3625 7.15 70.4875 7.6 71.3625 8.525C72.2625 9.45 72.7125 10.7 72.7125 12.325V20H69.4875V12.725C69.4875 11.05 68.5125 10.15 67.0125 10.15C65.3375 10.15 64.2625 11.175 64.2625 13.25V20H61.0375V7.5H64.2625V8.9C65.0375 7.725 66.2875 7.15 67.9875 7.15ZM82.6162 7.5V10.6H79.7912V15.8C79.7912 17.15 80.7662 17.175 82.6162 17.075V20C78.1912 20.5 76.5662 19.225 76.5662 15.8V10.6H74.3912V7.5H76.5662V4.975L79.7912 4V7.5H82.6162Z" fill="#0ABFFF"/>
<path d="M12.4995 0C9.37393 13.1583 0 14.4717 12.4995 23.6817C25 14.4708 15.6251 13.1583 12.4995 0ZM4.68744 7.88583C3.12464 11.8325 0 14.485 0 18.4325C0 22.38 6.24929 25 10.9377 25C1.5628 18.42 4.68744 14.4642 4.68744 7.88583ZM20.3116 7.88583C20.3116 14.465 23.4372 18.4208 14.0623 25C18.7498 25 25 22.38 25 18.4325C25 14.485 21.8734 11.8325 20.3116 7.88583Z" fill="#0ABFFF"/>
</svg>
