<svg width="16" height="16" viewBox="0 0 16 16" fill="none" xmlns="http://www.w3.org/2000/svg">
<path fill-rule="evenodd" clip-rule="evenodd" d="M5.73426 4.92296C5.0354 5.97171 4.40675 7.02153 4.02068 7.71006L3.05137 6.70359C2.44837 6.06668 2.44837 5.06955 3.05137 4.43263C3.33677 4.13324 3.73195 3.96324 4.14558 3.96191H6.40108C6.17604 4.27057 5.95203 4.59264 5.73426 4.92296Z" stroke="#FF5C5C" stroke-linecap="round" stroke-linejoin="round"/>
<path fill-rule="evenodd" clip-rule="evenodd" d="M11.0762 10.2665C10.0274 10.9653 8.97759 11.594 8.28906 11.98L9.29553 12.9493C9.93245 13.5523 10.9296 13.5523 11.5665 12.9493C11.866 12.6639 12.0359 12.2688 12.0373 11.8551V9.59961C11.7286 9.82465 11.4065 10.0486 11.0762 10.2665Z" stroke="#FF5C5C" stroke-linecap="round" stroke-linejoin="round"/>
<path d="M3.71562 9.78588C4.0179 9.48353 4.0178 8.9933 3.71539 8.69105C3.41297 8.3887 2.92278 8.3888 2.6205 8.69126L3.71562 9.78588ZM0.226644 11.0861C-0.0756374 11.3885 -0.0755344 11.8787 0.226871 12.181C0.529287 12.4833 1.01948 12.4832 1.32177 12.1808L0.226644 11.0861ZM5.51087 11.583C5.81309 11.2805 5.81288 10.7903 5.5104 10.488C5.20792 10.1859 4.71772 10.1861 4.4155 10.4886L5.51087 11.583ZM3.22012 11.685C2.91791 11.9874 2.91812 12.4777 3.2206 12.7799C3.52308 13.082 4.01328 13.0818 4.3155 12.7794L3.22012 11.685ZM4.56751 7.15853C4.26479 6.85659 3.77459 6.85721 3.47261 7.15987C3.17063 7.46264 3.17122 7.95277 3.47393 8.25481L4.56751 7.15853ZM6.1596 9.84039L6.70774 9.29359L6.70639 9.29225L6.1596 9.84039ZM7.74518 12.5261C8.04722 12.8287 8.53734 12.8293 8.84011 12.5274C9.14277 12.2254 9.14339 11.7352 8.84145 11.4325L7.74518 12.5261ZM5.75855 3.5246C5.52007 3.87949 5.61444 4.36052 5.96935 4.599C6.32424 4.83749 6.80529 4.74312 7.04374 4.38822L5.75855 3.5246ZM8.27783 1.75662L7.78296 1.16123C7.77181 1.17053 7.76087 1.18015 7.75013 1.19007L8.27783 1.75662ZM15.1291 0.87093L15.8994 0.79417C15.8629 0.427289 15.5727 0.137095 15.2059 0.100532L15.1291 0.87093ZM14.2434 7.72319L14.8099 8.25089C14.8199 8.24015 14.8296 8.22911 14.839 8.21786L14.2434 7.72319ZM11.6118 8.95728C11.2569 9.19573 11.1625 9.67677 11.401 10.0317C11.6394 10.3866 12.1205 10.4809 12.4754 10.2425L11.6118 8.95728ZM7.30873 13.3794C7.61119 13.0772 7.61129 12.587 7.30893 12.2846C7.00668 11.9822 6.51646 11.9821 6.2141 12.2844L7.30873 13.3794ZM3.8192 14.6783C3.51679 14.9805 3.51669 15.4707 3.81897 15.7731C4.12125 16.0756 4.61145 16.0757 4.91387 15.7733L3.8192 14.6783ZM13.0184 4.07649C13.3207 3.77415 13.3207 3.28394 13.0184 2.9816C12.716 2.67925 12.2259 2.67925 11.9235 2.9816L13.0184 4.07649ZM10.6466 4.25852C10.3442 4.56087 10.3442 5.05108 10.6466 5.35342C10.949 5.65576 11.4391 5.65576 11.7414 5.35342L10.6466 4.25852ZM2.6205 8.69126L0.226644 11.0861L1.32177 12.1808L3.71562 9.78588L2.6205 8.69126ZM4.4155 10.4886L3.22012 11.685L4.3155 12.7794L5.51087 11.583L4.4155 10.4886ZM3.47393 8.25481L5.61281 10.3885L6.70639 9.29225L4.56751 7.15853L3.47393 8.25481ZM5.61149 10.3872L7.74518 12.5261L8.84145 11.4325L6.70774 9.29359L5.61149 10.3872ZM7.04374 4.38822C7.55007 3.63475 8.14116 2.94186 8.80553 2.32317L7.75013 1.19007C6.99915 1.8895 6.33096 2.6728 5.75855 3.5246L7.04374 4.38822ZM8.7727 2.35202C8.98422 2.17617 9.34789 2.0062 9.87198 1.86944C10.3839 1.73588 10.9879 1.64937 11.6248 1.60027C12.899 1.50202 14.2275 1.55913 15.0523 1.64132L15.2059 0.100532C14.3109 0.0113637 12.8893 -0.0502326 11.5058 0.0564326C10.8137 0.109781 10.1118 0.206629 9.48105 0.371195C8.86261 0.532581 8.24707 0.775507 7.78296 1.16123L8.7727 2.35202ZM14.3587 0.94769C14.4408 1.77255 14.4979 3.10093 14.3998 4.37536C14.3506 5.01233 14.2641 5.61638 14.1305 6.12842C13.9938 6.65272 13.8237 7.0167 13.6477 7.22852L14.839 8.21786C15.2245 7.75354 15.4674 7.13789 15.6288 6.51935C15.7933 5.8885 15.8902 5.18646 15.9435 4.49437C16.0503 3.11069 15.9886 1.68908 15.8994 0.79417L14.3587 0.94769ZM13.6768 7.19549C13.0581 7.85986 12.3652 8.45094 11.6118 8.95728L12.4754 10.2425C13.3272 9.67006 14.1105 9.00187 14.8099 8.25089L13.6768 7.19549ZM6.2141 12.2844L3.8192 14.6783L4.91387 15.7733L7.30873 13.3794L6.2141 12.2844ZM11.9235 2.9816L10.6466 4.25852L11.7414 5.35342L13.0184 4.07649L11.9235 2.9816Z" fill="#83B9EC"/>
</svg>
