<svg width="126" height="26" viewBox="0 0 126 26" fill="none" xmlns="http://www.w3.org/2000/svg">
<g clip-path="url(#clip0_122_35)">
<mask id="mask0_122_35" style="mask-type:luminance" maskUnits="userSpaceOnUse" x="0" y="0" width="126" height="26">
<path d="M126 0H0V26H126V0Z" fill="white"/>
</mask>
<g mask="url(#mask0_122_35)">
<path d="M24 5.11111L21.8889 12.5H9.61986M22.9444 16.7222H10.2778L8.16667 3H5M13.4444 6.16667L15.5556 8.27778L19.7778 4.05556M11.3333 20.9444C11.3333 21.5274 10.8607 22 10.2778 22C9.69482 22 9.22222 21.5274 9.22222 20.9444C9.22222 20.3615 9.69482 19.8889 10.2778 19.8889C10.8607 19.8889 11.3333 20.3615 11.3333 20.9444ZM22.9444 20.9444C22.9444 21.5274 22.4719 22 21.8889 22C21.3059 22 20.8333 21.5274 20.8333 20.9444C20.8333 20.3615 21.3059 19.8889 21.8889 19.8889C22.4719 19.8889 22.9444 20.3615 22.9444 20.9444Z" stroke="#0ABFFF" stroke-width="2" stroke-linecap="round" stroke-linejoin="round"/>
<path d="M36.725 16.025C37.0917 16.025 37.275 16.2 37.275 16.55V16.925C37.275 17.425 37.3917 17.8 37.625 18.05C37.875 18.2833 38.2667 18.4 38.8 18.4H46.375C46.825 18.4 47.1917 18.375 47.475 18.325C47.7583 18.275 47.975 18.1833 48.125 18.05C48.275 17.9 48.375 17.7083 48.425 17.475C48.4917 17.2417 48.525 16.9417 48.525 16.575V15.3C48.525 14.9333 48.4917 14.6333 48.425 14.4C48.375 14.15 48.275 13.9583 48.125 13.825C47.975 13.6917 47.7583 13.6 47.475 13.55C47.1917 13.4833 46.825 13.45 46.375 13.45H38.425C37.0583 13.45 36.05 13.1417 35.4 12.525C34.7667 11.8917 34.45 10.925 34.45 9.625V7.325C34.45 6.025 34.7667 5.06667 35.4 4.45C36.05 3.81667 37.0583 3.5 38.425 3.5H47.275C48.0083 3.5 48.6333 3.575 49.15 3.725C49.6667 3.85833 50.0833 4.08333 50.4 4.4C50.7333 4.7 50.9667 5.1 51.1 5.6C51.25 6.1 51.325 6.7 51.325 7.4V7.925C51.325 8.275 51.1417 8.45 50.775 8.45H48.825C48.4583 8.45 48.275 8.275 48.275 7.925V7.575C48.275 7.075 48.15 6.70833 47.9 6.475C47.6667 6.225 47.275 6.1 46.725 6.1H39.725C39.275 6.1 38.9083 6.13333 38.625 6.2C38.3583 6.25 38.1417 6.34167 37.975 6.475C37.825 6.60833 37.7167 6.79167 37.65 7.025C37.6 7.25833 37.575 7.55833 37.575 7.925V9C37.575 9.36667 37.6 9.675 37.65 9.925C37.7167 10.1583 37.825 10.3417 37.975 10.475C38.1417 10.6083 38.3583 10.7083 38.625 10.775C38.9083 10.825 39.275 10.85 39.725 10.85H47.675C49.0417 10.85 50.05 11.1667 50.7 11.8C51.35 12.4167 51.675 13.375 51.675 14.675V17.175C51.675 18.475 51.35 19.4417 50.7 20.075C50.05 20.6917 49.0417 21 47.675 21H38.275C37.5417 21 36.9167 20.9333 36.4 20.8C35.8833 20.65 35.4583 20.425 35.125 20.125C34.8083 19.8083 34.575 19.4083 34.425 18.925C34.275 18.425 34.2 17.8167 34.2 17.1V16.55C34.2 16.2 34.3833 16.025 34.75 16.025H36.725ZM57.573 21C56.3397 21 55.448 20.7583 54.898 20.275C54.3647 19.775 54.098 18.9083 54.098 17.675V16.55C54.098 15.9167 54.1647 15.3917 54.298 14.975C54.4314 14.5417 54.6314 14.2 54.898 13.95C55.1814 13.6833 55.5397 13.5 55.973 13.4C56.423 13.2833 56.9564 13.225 57.573 13.225H64.348V11.975C64.348 11.6083 64.323 11.3167 64.273 11.1C64.223 10.8667 64.123 10.6833 63.973 10.55C63.823 10.4167 63.6064 10.325 63.323 10.275C63.0564 10.225 62.698 10.2 62.248 10.2H58.548C58.148 10.2 57.8397 10.275 57.623 10.425C57.423 10.5583 57.323 10.8167 57.323 11.2V11.325C57.323 11.625 57.1647 11.775 56.848 11.775H55.048C54.7147 11.775 54.548 11.625 54.548 11.325V11.175C54.548 9.99167 54.8147 9.14167 55.348 8.625C55.898 8.10833 56.7897 7.85 58.023 7.85H63.498C64.7814 7.85 65.723 8.13333 66.323 8.7C66.923 9.26667 67.223 10.175 67.223 11.425V18.05C67.223 18.4333 67.423 18.625 67.823 18.625H67.973C68.2897 18.625 68.448 18.7833 68.448 19.1V20.525C68.448 20.8417 68.2897 21 67.973 21H66.773C66.0064 21 65.4564 20.825 65.123 20.475C64.8064 20.1083 64.648 19.6167 64.648 19V18.825C64.1314 20.275 62.9064 21 60.973 21H57.573ZM61.623 18.65C62.623 18.65 63.323 18.4583 63.723 18.075C64.1397 17.675 64.348 17.05 64.348 16.2V15.525H58.248C57.8314 15.525 57.5147 15.6 57.298 15.75C57.098 15.9 56.998 16.175 56.998 16.575V17.575C56.998 17.975 57.098 18.2583 57.298 18.425C57.498 18.575 57.8147 18.65 58.248 18.65H61.623ZM75.6799 18.625C75.9965 18.625 76.1549 18.7833 76.1549 19.1V20.525C76.1549 20.8417 75.9965 21 75.6799 21H74.2299C73.0465 21 72.1965 20.7583 71.6799 20.275C71.1799 19.7917 70.9299 18.9833 70.9299 17.85V2.975C70.9299 2.65833 71.0965 2.5 71.4299 2.5H73.3299C73.6465 2.5 73.8049 2.65833 73.8049 2.975V17.5C73.8049 17.9333 73.8882 18.2333 74.0549 18.4C74.2382 18.55 74.5799 18.625 75.0799 18.625H75.6799ZM82.1715 21C80.8715 21 79.9215 20.7167 79.3215 20.15C78.7382 19.5833 78.4465 18.675 78.4465 17.425V11.425C78.4465 10.175 78.7382 9.26667 79.3215 8.7C79.9215 8.13333 80.8715 7.85 82.1715 7.85H88.2215C89.4215 7.85 90.2965 8.11667 90.8465 8.65C91.4132 9.18333 91.6965 10.0333 91.6965 11.2V15.05C91.6965 15.3667 91.5382 15.525 91.2215 15.525H81.2965V16.875C81.2965 17.2417 81.3215 17.5417 81.3715 17.775C81.4215 18.0083 81.5215 18.1917 81.6715 18.325C81.8382 18.4417 82.0548 18.525 82.3215 18.575C82.6048 18.625 82.9715 18.65 83.4215 18.65H87.6965C88.1132 18.65 88.4215 18.5833 88.6215 18.45C88.8215 18.3 88.9215 18.0333 88.9215 17.65V17.625C88.9215 17.3083 89.0882 17.15 89.4215 17.15H91.2215C91.5382 17.15 91.6965 17.3083 91.6965 17.625V17.675C91.6965 18.8583 91.4215 19.7083 90.8715 20.225C90.3382 20.7417 89.4548 21 88.2215 21H82.1715ZM81.2965 13.225H88.8965V11.325C88.8965 10.8917 88.7882 10.6 88.5715 10.45C88.3548 10.2833 88.0298 10.2 87.5965 10.2H83.4215C82.9715 10.2 82.6048 10.225 82.3215 10.275C82.0548 10.325 81.8382 10.4167 81.6715 10.55C81.5215 10.6833 81.4215 10.8667 81.3715 11.1C81.3215 11.3167 81.2965 11.6083 81.2965 11.975V13.225Z" fill="#0ABFFF"/>
</g>
</g>
<defs>
<clipPath id="clip0_122_35">
<rect width="126" height="26" fill="white"/>
</clipPath>
</defs>
</svg>
