<svg width="45" height="49" viewBox="0 0 45 49" fill="none" xmlns="http://www.w3.org/2000/svg">
<path d="M18.5326 38.8182C28.0318 38.8182 35.7324 30.3523 35.7324 19.9091C35.7324 9.46589 28.0318 1 18.5326 1C9.03347 1 1.33289 9.46589 1.33289 19.9091C1.33289 30.3523 9.03347 38.8182 18.5326 38.8182Z" stroke="#9295BF" stroke-width="2" stroke-linejoin="round"/>
<path d="M42.735 48.5754C43.2517 49.1433 44.0895 49.1433 44.6063 48.5754C45.1228 48.0073 45.1228 47.0863 44.6063 46.5181L42.735 48.5754ZM44.6063 46.5181L32.3998 33.0985C31.8506 32.4947 30.9009 32.4947 30.3517 33.0985V33.0985C29.8713 33.6266 29.8713 34.4333 30.3517 34.9614L42.735 48.5754L44.6063 46.5181Z" fill="#9295BF"/>
</svg>
