<svg width="48" height="48" viewBox="0 0 48 48" fill="none" xmlns="http://www.w3.org/2000/svg">
<path d="M19.7923 28.1738L44.295 3.68013M20.4888 29.2753L26.0448 40.3876C27.3875 43.0728 28.0588 44.4156 28.9045 44.7756C29.6385 45.0881 30.4775 45.0313 31.163 44.6233C31.9528 44.1531 32.4378 42.7323 33.408 39.8911L43.9058 9.14743C44.7513 6.6718 45.1738 5.43398 44.8845 4.61513C44.6328 3.90278 44.0725 3.34243 43.3603 3.09075C42.5413 2.80145 41.3035 3.22413 38.8278 4.06946L8.08412 14.5673C5.24289 15.5375 3.82227 16.0226 3.35199 16.8124C2.94387 17.4978 2.88732 18.3368 3.19977 19.0706C3.55982 19.9163 4.90249 20.5878 7.58784 21.9303L18.7 27.4866C19.1425 27.7078 19.3638 27.8183 19.5553 27.9661C19.7255 28.0973 19.878 28.2498 20.009 28.4198C20.157 28.6116 20.2675 28.8328 20.4888 29.2753Z" stroke="white" stroke-width="5" stroke-linecap="round" stroke-linejoin="round"/>
</svg>
