<svg width="126" height="26" viewBox="0 0 126 26" fill="none" xmlns="http://www.w3.org/2000/svg">
<g clip-path="url(#clip0_122_42)">
<mask id="mask0_122_42" style="mask-type:luminance" maskUnits="userSpaceOnUse" x="0" y="0" width="126" height="26">
<path d="M126 0H0V26H126V0Z" fill="white"/>
</mask>
<g mask="url(#mask0_122_42)">
<path d="M10.835 12.2299C11.2697 12.6646 11.2697 13.3692 10.835 13.804L8.79999 15.839H19.5084C20.1231 15.839 20.6214 16.3373 20.6214 16.952C20.6214 17.5667 20.1231 18.065 19.5084 18.065H8.79999L10.835 20.1C11.2697 20.5346 11.2697 21.2393 10.835 21.674C10.4004 22.1087 9.69566 22.1087 9.26101 21.674L5.32598 17.739C4.89134 17.3043 4.89134 16.5996 5.32598 16.165L9.26101 12.2299C9.69566 11.7953 10.4004 11.7953 10.835 12.2299ZM19.2778 3.32599C19.6791 2.92477 20.3104 2.89391 20.7469 3.2334L20.8518 3.32599L24.7869 7.26101C25.1881 7.66223 25.2189 8.29355 24.8795 8.73017L24.7869 8.83503L20.8518 12.77C20.4172 13.2047 19.7125 13.2047 19.2778 12.77C18.8766 12.3688 18.8457 11.7375 19.1852 11.3009L19.2778 11.196L21.3129 9.16101H10.6044C9.98968 9.16101 9.49137 8.6627 9.49137 8.04802C9.49137 7.47723 9.92103 7.0068 10.4746 6.94251L10.6044 6.93503H21.3129L19.2778 4.9C18.8432 4.46535 18.8432 3.76064 19.2778 3.32599Z" fill="#0ABFFF"/>
<path d="M38.88 7.0802H33.78C33.4867 7.0802 33.34 6.9402 33.34 6.6602V5.4202C33.34 5.1402 33.4867 5.0002 33.78 5.0002H46.5C46.7933 5.0002 46.94 5.1402 46.94 5.4202V6.6602C46.94 6.9402 46.7933 7.0802 46.5 7.0802H41.4V18.5802C41.4 18.8602 41.2533 19.0002 40.96 19.0002H39.32C39.0267 19.0002 38.88 18.8602 38.88 18.5802V7.0802ZM53.5058 10.3802C52.5058 10.3802 51.7924 10.6002 51.3658 11.0402C50.9524 11.4669 50.7458 12.1069 50.7458 12.9602V18.6202C50.7458 18.8735 50.6124 19.0002 50.3458 19.0002H48.8458C48.5791 19.0002 48.4458 18.8735 48.4458 18.6202V8.8602C48.4458 8.60687 48.5791 8.4802 48.8458 8.4802H50.0458C50.3124 8.4802 50.4458 8.60687 50.4458 8.8602V10.3602C50.8058 9.10687 51.8124 8.4802 53.4658 8.4802H54.4258C54.6924 8.4802 54.8258 8.60687 54.8258 8.8602V10.0002C54.8258 10.2535 54.6924 10.3802 54.4258 10.3802H53.5058ZM58.9084 19.0002C57.9218 19.0002 57.2084 18.8069 56.7684 18.4202C56.3418 18.0202 56.1284 17.3269 56.1284 16.3402V15.4402C56.1284 14.9335 56.1818 14.5135 56.2884 14.1802C56.3951 13.8335 56.5551 13.5602 56.7684 13.3602C56.9951 13.1469 57.2818 13.0002 57.6284 12.9202C57.9884 12.8269 58.4151 12.7802 58.9084 12.7802H64.3284V11.7802C64.3284 11.4869 64.3084 11.2535 64.2684 11.0802C64.2284 10.8935 64.1484 10.7469 64.0284 10.6402C63.9084 10.5335 63.7351 10.4602 63.5084 10.4202C63.2951 10.3802 63.0084 10.3602 62.6484 10.3602H59.6884C59.3684 10.3602 59.1218 10.4202 58.9484 10.5402C58.7884 10.6469 58.7084 10.8535 58.7084 11.1602V11.2602C58.7084 11.5002 58.5818 11.6202 58.3284 11.6202H56.8884C56.6218 11.6202 56.4884 11.5002 56.4884 11.2602V11.1402C56.4884 10.1935 56.7018 9.51353 57.1284 9.1002C57.5684 8.68687 58.2818 8.4802 59.2684 8.4802H63.6484C64.6751 8.4802 65.4284 8.70687 65.9084 9.1602C66.3884 9.61353 66.6284 10.3402 66.6284 11.3402V16.6402C66.6284 16.9469 66.7884 17.1002 67.1084 17.1002H67.2284C67.4818 17.1002 67.6084 17.2269 67.6084 17.4802V18.6202C67.6084 18.8735 67.4818 19.0002 67.2284 19.0002H66.2684C65.6551 19.0002 65.2151 18.8602 64.9484 18.5802C64.6951 18.2869 64.5684 17.8935 64.5684 17.4002V17.2602C64.1551 18.4202 63.1751 19.0002 61.6284 19.0002H58.9084ZM62.1484 17.1202C62.9484 17.1202 63.5084 16.9669 63.8284 16.6602C64.1618 16.3402 64.3284 15.8402 64.3284 15.1602V14.6202H59.4484C59.1151 14.6202 58.8618 14.6802 58.6884 14.8002C58.5284 14.9202 58.4484 15.1402 58.4484 15.4602V16.2602C58.4484 16.5802 58.5284 16.8069 58.6884 16.9402C58.8484 17.0602 59.1018 17.1202 59.4484 17.1202H62.1484ZM77.8339 11.8002C77.8339 11.5069 77.8139 11.2669 77.7739 11.0802C77.7339 10.8935 77.6539 10.7535 77.5339 10.6602C77.4139 10.5535 77.2406 10.4802 77.0139 10.4402C76.8006 10.4002 76.5139 10.3802 76.1539 10.3802H74.2539C73.4539 10.3802 72.8872 10.5402 72.5539 10.8602C72.2339 11.1669 72.0739 11.6602 72.0739 12.3402V18.6202C72.0739 18.8735 71.9406 19.0002 71.6739 19.0002H70.1739C69.9072 19.0002 69.7739 18.8735 69.7739 18.6202V8.8602C69.7739 8.60687 69.9072 8.4802 70.1739 8.4802H71.4139C71.6672 8.4802 71.7939 8.60687 71.7939 8.8602V10.2802C72.1806 9.0802 73.1606 8.4802 74.7339 8.4802H77.1539C78.1939 8.4802 78.9472 8.70687 79.4139 9.1602C79.8939 9.61353 80.1339 10.3402 80.1339 11.3402V18.6202C80.1339 18.8735 80.0072 19.0002 79.7539 19.0002H78.2339C77.9672 19.0002 77.8339 18.8735 77.8339 18.6202V11.8002ZM84.8756 11.9402C84.8756 12.2469 84.9556 12.4669 85.1156 12.6002C85.2756 12.7202 85.529 12.7802 85.8756 12.7802H90.2756C90.769 12.7802 91.189 12.8269 91.5356 12.9202C91.8956 13.0002 92.1823 13.1469 92.3956 13.3602C92.6223 13.5602 92.789 13.8335 92.8956 14.1802C93.0023 14.5135 93.0556 14.9335 93.0556 15.4402V16.3402C93.0556 17.3269 92.8356 18.0202 92.3956 18.4202C91.969 18.8069 91.2623 19.0002 90.2756 19.0002H85.1556C84.169 19.0002 83.4556 18.7935 83.0156 18.3802C82.589 17.9669 82.3756 17.2935 82.3756 16.3602V16.2202C82.3756 15.9802 82.509 15.8602 82.7756 15.8602H84.2156C84.4823 15.8602 84.6156 15.9802 84.6156 16.2202V16.3202C84.6156 16.6269 84.6956 16.8402 84.8556 16.9602C85.0156 17.0669 85.2623 17.1202 85.5956 17.1202H89.7556C90.1023 17.1202 90.3556 17.0602 90.5156 16.9402C90.6756 16.8069 90.7556 16.5802 90.7556 16.2602V15.5002C90.7556 14.9135 90.4223 14.6202 89.7556 14.6202H85.3356C84.8423 14.6202 84.4223 14.5802 84.0756 14.5002C83.729 14.4069 83.4423 14.2602 83.2156 14.0602C83.0023 13.8469 82.8423 13.5735 82.7356 13.2402C82.629 12.8935 82.5756 12.4669 82.5756 11.9602V11.1402C82.5756 10.1535 82.789 9.46687 83.2156 9.0802C83.6423 8.6802 84.349 8.4802 85.3356 8.4802H90.0356C90.9956 8.4802 91.689 8.68687 92.1156 9.1002C92.5556 9.51353 92.7756 10.1869 92.7756 11.1202V11.2602C92.7756 11.5002 92.649 11.6202 92.3956 11.6202H90.9356C90.6823 11.6202 90.5556 11.5002 90.5556 11.2602V11.1602C90.5556 10.8669 90.4756 10.6602 90.3156 10.5402C90.1556 10.4202 89.909 10.3602 89.5756 10.3602H85.8756C85.529 10.3602 85.2756 10.4269 85.1156 10.5602C84.9556 10.6802 84.8756 10.9002 84.8756 11.2202V11.9402ZM96.1952 10.3802H94.9952C94.7418 10.3802 94.6152 10.2535 94.6152 10.0002V8.8602C94.6152 8.60687 94.7418 8.4802 94.9952 8.4802H96.1952V7.1002C96.1952 5.16687 97.2018 4.2002 99.2152 4.2002H101.335C101.588 4.2002 101.715 4.32687 101.715 4.5802V5.7202C101.715 5.97353 101.588 6.1002 101.335 6.1002H99.8952C99.3352 6.1002 98.9618 6.19353 98.7752 6.3802C98.5885 6.55353 98.4952 6.87353 98.4952 7.3402V8.4802H101.335C101.588 8.4802 101.715 8.60687 101.715 8.8602V10.0002C101.715 10.2535 101.588 10.3802 101.335 10.3802H98.4952V18.6202C98.4952 18.8735 98.3618 19.0002 98.0952 19.0002H96.5952C96.3285 19.0002 96.1952 18.8735 96.1952 18.6202V10.3802ZM106.361 19.0002C105.321 19.0002 104.561 18.7735 104.081 18.3202C103.614 17.8669 103.381 17.1402 103.381 16.1402V11.3402C103.381 10.3402 103.614 9.61353 104.081 9.1602C104.561 8.70687 105.321 8.4802 106.361 8.4802H111.201C112.161 8.4802 112.861 8.69353 113.301 9.1202C113.754 9.54687 113.981 10.2269 113.981 11.1602V14.2402C113.981 14.4935 113.854 14.6202 113.601 14.6202H105.661V15.7002C105.661 15.9935 105.681 16.2335 105.721 16.4202C105.761 16.6069 105.841 16.7535 105.961 16.8602C106.094 16.9535 106.267 17.0202 106.481 17.0602C106.707 17.1002 107.001 17.1202 107.361 17.1202H110.781C111.114 17.1202 111.361 17.0669 111.521 16.9602C111.681 16.8402 111.761 16.6269 111.761 16.3202V16.3002C111.761 16.0469 111.894 15.9202 112.161 15.9202H113.601C113.854 15.9202 113.981 16.0469 113.981 16.3002V16.3402C113.981 17.2869 113.761 17.9669 113.321 18.3802C112.894 18.7935 112.187 19.0002 111.201 19.0002H106.361ZM105.661 12.7802H111.741V11.2602C111.741 10.9135 111.654 10.6802 111.481 10.5602C111.307 10.4269 111.047 10.3602 110.701 10.3602H107.361C107.001 10.3602 106.707 10.3802 106.481 10.4202C106.267 10.4602 106.094 10.5335 105.961 10.6402C105.841 10.7469 105.761 10.8935 105.721 11.0802C105.681 11.2535 105.661 11.4869 105.661 11.7802V12.7802ZM121.787 10.3802C120.787 10.3802 120.074 10.6002 119.647 11.0402C119.234 11.4669 119.027 12.1069 119.027 12.9602V18.6202C119.027 18.8735 118.894 19.0002 118.627 19.0002H117.127C116.86 19.0002 116.727 18.8735 116.727 18.6202V8.8602C116.727 8.60687 116.86 8.4802 117.127 8.4802H118.327C118.594 8.4802 118.727 8.60687 118.727 8.8602V10.3602C119.087 9.10687 120.094 8.4802 121.747 8.4802H122.707C122.974 8.4802 123.107 8.60687 123.107 8.8602V10.0002C123.107 10.2535 122.974 10.3802 122.707 10.3802H121.787Z" fill="#0ABFFF"/>
</g>
</g>
<defs>
<clipPath id="clip0_122_42">
<rect width="126" height="26" fill="white"/>
</clipPath>
</defs>
</svg>
