<svg width="41" height="40" viewBox="0 0 41 40" fill="none" xmlns="http://www.w3.org/2000/svg">
<g clip-path="url(#clip0_93_7)">
<path d="M4.46449 0C2.4554 0 0.828125 1.62727 0.828125 3.63636V36.3636C0.828125 38.3727 2.4554 40 4.46449 40H37.1918C39.2009 40 40.8281 38.3727 40.8281 36.3636V3.63636C40.8281 1.62727 39.2009 0 37.1918 0H4.46449ZM9.27983 9.09091H17.6641L22.5575 16.0866L28.6122 9.09091H31.2507L23.7436 17.7841L32.9268 30.9091H24.5426L19.1129 23.1463L12.4084 30.9091H9.72727L17.9197 21.4453L9.27983 9.09091ZM13.3352 11.2429L25.6151 28.7465H28.8679L16.5845 11.2429H13.3352Z" fill="#0ABFFF"/>
</g>
<defs>
<clipPath id="clip0_93_7">
<rect width="41" height="40" fill="white"/>
</clipPath>
</defs>
</svg>
