<svg width="126" height="26" viewBox="0 0 126 26" fill="none" xmlns="http://www.w3.org/2000/svg">
<g clip-path="url(#clip0_122_49)">
<path d="M36.575 14.2V2.5H39.45V14.025C39.45 16.15 40.7 17.525 43.2 17.525C45.7 17.525 46.95 16.15 46.95 14.025V2.5H49.825V14.2C49.825 16.075 49.2 17.55 47.975 18.675C46.75 19.775 45.15 20.325 43.2 20.325C41.25 20.325 39.65 19.775 38.425 18.675C37.2 17.55 36.575 16.075 36.575 14.2ZM59.5318 7.175C62.4068 7.175 64.3318 9.125 64.3318 12.325V20H61.6318V12.6C61.6318 10.725 60.5568 9.7 58.8318 9.7C56.9318 9.7 55.6568 10.875 55.6568 13.3V20H52.9568V7.5H55.6568V9.1C56.4818 7.825 57.7568 7.175 59.5318 7.175ZM69.9391 20H67.2391V1.75H69.9391V20ZM75.599 5.55C74.924 6.2 73.924 6.2 73.224 5.55C72.574 4.85 72.574 3.85 73.224 3.175C73.899 2.5 74.949 2.5 75.624 3.175C76.274 3.85 76.274 4.85 75.599 5.55ZM75.774 20H73.074V7.5H75.774V20ZM81.2607 10.95C81.2607 11.775 82.3107 12.2 83.6107 12.575C85.5357 13 88.0357 13.8 87.9857 16.475C87.9857 17.675 87.5107 18.625 86.5857 19.3C85.6607 19.975 84.5107 20.325 83.1107 20.325C80.6357 20.325 78.8107 19.225 78.0107 17.4L80.3357 16.05C80.7607 17.25 81.6857 17.85 83.1107 17.85C84.5357 17.85 85.2357 17.375 85.2357 16.45C85.2357 15.65 84.1857 15.175 82.8607 14.85C80.9857 14.375 78.4607 13.625 78.5107 11C78.5107 9.85 78.9357 8.925 79.8107 8.225C80.6857 7.525 81.7857 7.175 83.0857 7.175C85.1607 7.175 86.8357 8.15 87.7107 9.775L85.4357 11.05C85.0107 10.1 84.2107 9.625 83.0857 9.625C82.0607 9.625 81.2607 10.075 81.2607 10.95ZM96.8459 7.5V10.1H93.7459V16.1C93.7459 17.7 94.7959 17.675 96.8459 17.575V20C92.7209 20.5 91.0459 19.375 91.0459 16.1V10.1H88.7459V7.5H91.0459V4.8L93.7459 4V7.5H96.8459Z" fill="#0ABFFF"/>
<path fill-rule="evenodd" clip-rule="evenodd" d="M0.153303 14.52C0.512728 15.7733 1.47869 16.7393 3.4106 18.6711L5.69765 20.9581C9.05889 24.3194 10.7395 26 12.8279 26C14.9163 26 16.5969 24.3194 19.9581 20.9581C23.3194 17.5969 25 15.9163 25 13.8279C25 11.7395 23.3194 10.0589 19.9581 6.69765L17.6711 4.4106C15.7393 2.47869 14.7733 1.51273 13.52 1.1533C12.2668 0.793866 10.9356 1.10104 8.27344 1.71539L6.73822 2.06968C4.4985 2.58653 3.37865 2.84497 2.6118 3.6118C1.84497 4.37865 1.58653 5.49852 1.06968 7.73822L0.71539 9.27344C0.10104 11.9356 -0.206135 13.2668 0.153303 14.52ZM10.1543 7.58873C11.1388 8.5732 11.1388 10.1694 10.1543 11.1539C9.16976 12.1384 7.5736 12.1384 6.58911 11.1539C5.60464 10.1694 5.60464 8.5732 6.58911 7.58873C7.5736 6.60424 9.16976 6.60424 10.1543 7.58873ZM21.3139 13.5639L12.5901 22.2879C12.224 22.654 11.6304 22.654 11.2643 22.2879C10.8981 21.9219 10.8981 21.3283 11.2643 20.9621L19.988 12.238C20.3541 11.8719 20.9478 11.8719 21.3139 12.238C21.68 12.6041 21.68 13.1978 21.3139 13.5639Z" fill="#0ABFFF"/>
</g>
<defs>
<clipPath id="clip0_122_49">
<rect width="126" height="26" fill="white"/>
</clipPath>
</defs>
</svg>
