<svg width="47" height="47" viewBox="0 0 47 47" fill="none" xmlns="http://www.w3.org/2000/svg">
<g clip-path="url(#clip0_94_9)">
<mask id="mask0_94_9" style="mask-type:luminance" maskUnits="userSpaceOnUse" x="0" y="0" width="47" height="47">
<path d="M47 0H0V47H47V0Z" fill="white"/>
</mask>
<g mask="url(#mask0_94_9)">
<path d="M17.842 2.82073C17.2698 3.30838 16.9837 3.55222 16.6781 3.75705C15.9776 4.22658 15.1908 4.55245 14.3634 4.7158C14.0025 4.78707 13.6277 4.81697 12.8782 4.87677C10.995 5.02706 10.0533 5.10221 9.26772 5.3797C7.4507 6.02148 6.02148 7.4507 5.3797 9.26772C5.10221 10.0533 5.02708 10.9949 4.8768 12.8782C4.81699 13.6277 4.78707 14.0025 4.7158 14.3634C4.55245 15.1908 4.22658 15.9776 3.75705 16.6781C3.55222 16.9837 3.30836 17.2698 2.82066 17.8421C1.59528 19.2801 0.982541 19.999 0.623273 20.7507C-0.207758 22.4895 -0.207758 24.5105 0.623273 26.2493C0.982564 27.001 1.59526 27.7199 2.82064 29.1579C3.30824 29.7301 3.55224 30.0163 3.75705 30.3218C4.22658 31.0224 4.55245 31.8091 4.7158 32.6366C4.78707 32.9975 4.81697 33.3724 4.87677 34.1218C5.02706 36.0051 5.10221 36.9467 5.3797 37.7323C6.02148 39.5493 7.4507 40.9786 9.26772 41.6204C10.0533 41.8977 10.9949 41.9729 12.878 42.1233C13.6275 42.183 14.0025 42.2131 14.3634 42.2843C15.1908 42.4476 15.9776 42.7735 16.6781 43.2431C16.9837 43.4477 17.2698 43.6917 17.8421 44.1793C19.2801 45.4048 19.999 46.0175 20.7507 46.3768C22.4895 47.2077 24.5105 47.2077 26.2493 46.3768C27.001 46.0175 27.7199 45.4048 29.1579 44.1793C29.7301 43.6917 30.0163 43.4477 30.3218 43.2431C31.0224 42.7735 31.8091 42.4476 32.6366 42.2843C32.9975 42.2131 33.3724 42.183 34.1218 42.1233C36.0048 41.9729 36.9467 41.8977 37.7323 41.6204C39.5493 40.9786 40.9786 39.5493 41.6204 37.7323C41.8977 36.9467 41.9729 36.0051 42.1233 34.122C42.183 33.3726 42.2131 32.9975 42.2843 32.6366C42.4476 31.8091 42.7735 31.0224 43.2431 30.3218C43.4477 30.0163 43.6917 29.7301 44.1793 29.1579C45.4048 27.7199 46.0175 27.001 46.3768 26.2493C47.2077 24.5105 47.2077 22.4895 46.3768 20.7507C46.0175 19.999 45.4048 19.2801 44.1793 17.8421C43.6917 17.2698 43.4477 16.9837 43.2431 16.6781C42.7735 15.9776 42.4476 15.1908 42.2843 14.3634C42.2131 14.0025 42.183 13.6277 42.1233 12.8782C41.9729 10.9951 41.8977 10.0533 41.6204 9.26772C40.9786 7.4507 39.5493 6.02148 37.7323 5.3797C36.9467 5.10221 36.0051 5.02708 34.1218 4.8768C33.3724 4.81699 32.9975 4.78707 32.6366 4.7158C31.8091 4.55245 31.0224 4.22658 30.3218 3.75705C30.0163 3.55222 29.7301 3.30836 29.1579 2.82064C27.7199 1.59526 27.001 0.982564 26.2493 0.623273C24.5105 -0.207758 22.4895 -0.207758 20.7507 0.623273C19.999 0.982541 19.28 1.59535 17.842 2.82073Z" fill="#080C4F"/>
<path d="M33.7778 18.4779C34.5247 17.731 34.5247 16.52 33.7778 15.7731C33.0308 15.0262 31.8198 15.0262 31.073 15.7731L19.6748 27.1713L15.9271 23.4232C15.1802 22.6764 13.9692 22.6764 13.2223 23.4232C12.4754 24.1703 12.4754 25.3813 13.2223 26.1281L18.3225 31.2283C19.0694 31.9751 20.2804 31.9751 21.0272 31.2283L33.7778 18.4779Z" fill="white"/>
</g>
</g>
<defs>
<clipPath id="clip0_94_9">
<rect width="47" height="47" fill="white"/>
</clipPath>
</defs>
</svg>
