<svg width="167" height="167" viewBox="0 0 167 167" fill="none" xmlns="http://www.w3.org/2000/svg">
<path d="M83.5004 0.545898C98.4323 0.545898 112.258 4.27885 124.978 11.7448C137.697 19.2107 147.79 29.3035 155.256 42.0232C162.722 54.7429 166.455 68.5686 166.455 83.5004C166.455 98.4323 162.722 112.258 155.256 124.978C147.79 137.697 137.697 147.79 124.978 155.256C112.258 162.722 98.4323 166.455 83.5004 166.455C68.5686 166.455 54.7429 162.722 42.0232 155.256C29.3035 147.79 19.2107 137.697 11.7448 124.978C4.27885 112.258 0.545898 98.4323 0.545898 83.5004C0.545898 68.5686 4.27885 54.7429 11.7448 42.0232C19.2107 29.3035 29.3035 19.2107 42.0232 11.7448C54.7429 4.27885 68.5686 0.545898 83.5004 0.545898ZM70.2277 37.0459V90.1368H96.7732V37.0459H70.2277ZM70.2277 103.41V129.955H96.7732V103.41H70.2277Z" fill="white"/>
</svg>
