<svg width="107" height="107" viewBox="0 0 107 107" fill="none" xmlns="http://www.w3.org/2000/svg">
<path d="M53.9757 0.00488527C58.8051 0.279207 62.8248 2.58218 65.2494 7.26334L104.929 87.3652C108.776 95.4622 102.818 106.358 93.0422 106.515H13.1372C4.23941 106.373 -3.06108 96.2696 1.29709 87.2767L41.7175 7.17707C42.4741 5.73909 42.8192 5.32318 43.4718 4.5688C46.0956 1.52693 48.9649 -0.101304 53.9757 0.00488527ZM53.3231 8.84733C51.8032 8.92255 50.4117 9.77427 49.6529 11.0972C35.689 37.598 22.2274 64.3709 9.16614 91.3296C7.95824 94.0397 10.0311 97.5173 13.0642 97.6634C39.7441 98.0948 66.4352 98.0948 93.1152 97.6634C96.0464 97.5218 98.2498 94.1591 97.0287 91.3584C84.213 64.4041 71.0013 37.6312 57.283 11.126C56.4733 9.68578 55.2853 8.82078 53.3231 8.84733Z" fill="#D92929"/>
<path d="M56.6404 72.1103H49.2338L48.4197 35.7207H57.49L56.6404 72.1103ZM48.1719 83.2381C48.1719 81.8908 48.6077 80.7758 49.4815 79.8887C50.3576 79.0038 51.55 78.5591 53.061 78.5591C54.5742 78.5591 55.7666 79.0038 56.6404 79.8887C57.5143 80.7758 57.9523 81.8908 57.9523 83.2381C57.9523 84.5367 57.5254 85.6229 56.6758 86.4967C55.8241 87.3706 54.6206 87.8086 53.061 87.8086C51.5013 87.8086 50.2979 87.3706 49.4461 86.4967C48.5966 85.6229 48.1719 84.5367 48.1719 83.2381Z" fill="#D92929"/>
</svg>
