<svg width="40" height="41" viewBox="0 0 40 41" fill="none" xmlns="http://www.w3.org/2000/svg">
<g clip-path="url(#clip0_97_20)">
<path fill-rule="evenodd" clip-rule="evenodd" d="M15.1961 34.7928C15.5784 35.5095 15.9613 36.1552 16.3273 36.7275C12.4388 35.853 9.06458 33.6195 6.72973 30.5519C8.27069 29.6841 10.2443 28.7846 12.617 28.1264C13.2914 30.7712 14.2428 33.0052 15.1961 34.7928ZM18.1373 33.2241C17.3091 31.6715 16.4791 29.7324 15.8811 27.4348C17.1684 27.2437 18.5427 27.1335 20.0002 27.1335C21.4576 27.1335 22.8318 27.2437 24.1189 27.4346C23.5209 29.7324 22.6909 31.6715 21.8627 33.2241C21.1987 34.4692 20.5371 35.4632 20 36.1906C19.4629 35.4632 18.8013 34.4692 18.1373 33.2241ZM15 20.4668C15 21.7648 15.0873 22.9968 15.2413 24.1599C16.7264 23.9321 18.3142 23.8001 20.0002 23.8001C21.686 23.8001 23.2738 23.9319 24.7587 24.1599C24.9127 22.9966 25 21.7648 25 20.4668C25 19.1688 24.9127 17.937 24.7587 16.7737C23.2738 17.0015 21.686 17.1335 20.0002 17.1335C18.3142 17.1335 16.7264 17.0015 15.2413 16.7737C15.0873 17.9368 15 19.1688 15 20.4668ZM11.9708 16.0864C11.7773 17.4619 11.6667 18.9232 11.6667 20.4668C11.6667 22.0104 11.7773 23.4717 11.9708 24.8472C9.14085 25.607 6.79738 26.6784 4.98498 27.7092C3.92662 25.5192 3.33333 23.0624 3.33333 20.4668C3.33333 17.8712 3.92662 15.4144 4.98496 13.2243C6.79716 14.2551 9.14067 15.3265 11.9708 16.0864ZM15.8811 13.4989C17.1684 13.69 18.5427 13.8001 20.0002 13.8001C21.4576 13.8001 22.8318 13.69 24.1189 13.499C23.5209 11.2014 22.6909 9.2622 21.8627 7.70946C21.1987 6.46444 20.5371 5.47026 20 4.74306C19.4629 5.47026 18.8013 6.46444 18.1373 7.70942C17.3091 9.26215 16.4791 11.2013 15.8811 13.4989ZM28.0291 16.0866C28.2227 17.4621 28.3333 18.9235 28.3333 20.4668C28.3333 22.0104 28.2227 23.4715 28.0291 24.847C30.8591 25.607 33.2027 26.6784 35.0151 27.7092C36.0733 25.519 36.6667 23.0621 36.6667 20.4668C36.6667 17.8715 36.0733 15.4145 35.0151 13.2244C33.2029 14.2552 30.8593 15.3266 28.0291 16.0866ZM33.2702 10.3819C31.7291 11.2497 29.7556 12.1491 27.3831 12.8074C26.7087 10.1624 25.7573 7.92833 24.804 6.14084C24.4216 5.42406 24.0387 4.77846 23.6727 4.20613C27.5613 5.08064 30.9356 7.31426 33.2702 10.3819ZM12.617 12.8074C10.2445 12.149 8.27089 11.2496 6.72976 10.3818C9.06458 7.31422 12.4388 5.08064 16.3271 4.20613C15.9613 4.77846 15.5784 5.42404 15.1961 6.1408C14.2428 7.92829 13.2914 10.1624 12.617 12.8074ZM27.3831 28.1261C26.7087 30.7712 25.7573 33.0052 24.804 34.7928C24.4216 35.5095 24.0387 36.1552 23.6727 36.7275C27.5613 35.853 30.9356 33.6192 33.2704 30.5517C31.7293 29.6839 29.7558 28.7846 27.3831 28.1261ZM20 40.4668C31.0458 40.4668 40 31.5126 40 20.4668C40 9.42111 31.0458 0.466797 20 0.466797C8.95431 0.466797 0 9.42111 0 20.4668C0 31.5126 8.95431 40.4668 20 40.4668Z" fill="#0ABFFF"/>
</g>
<defs>
<clipPath id="clip0_97_20">
<rect width="40" height="41" fill="white"/>
</clipPath>
</defs>
</svg>
