<svg width="31" height="31" viewBox="0 0 31 31" fill="none" xmlns="http://www.w3.org/2000/svg">
<g clip-path="url(#clip0_122_52)">
<mask id="mask0_122_52" style="mask-type:luminance" maskUnits="userSpaceOnUse" x="0" y="0" width="31" height="31">
<path d="M31 0H0V31H31V0Z" fill="white"/>
</mask>
<g mask="url(#mask0_122_52)">
<path d="M25.8787 30.1213C27.0503 31.2929 28.9497 31.2929 30.1213 30.1213C31.2929 28.9497 31.2929 27.0503 30.1213 25.8787L25.8787 30.1213ZM5.12132 0.87868C3.94975 -0.292893 2.05025 -0.292893 0.87868 0.87868C-0.292893 2.05025 -0.292893 3.94975 0.87868 5.12132L5.12132 0.87868ZM30.1213 5.12132C31.2929 3.94975 31.2929 2.05025 30.1213 0.87868C28.9497 -0.292893 27.0503 -0.292893 25.8787 0.87868L30.1213 5.12132ZM0.87868 25.8787C-0.292893 27.0503 -0.292893 28.9497 0.87868 30.1213C2.05025 31.2929 3.94975 31.2929 5.12132 30.1213L0.87868 25.8787ZM30.1213 25.8787L17.6213 13.3787L13.3787 17.6213L25.8787 30.1213L30.1213 25.8787ZM17.6213 13.3787L5.12132 0.87868L0.87868 5.12132L13.3787 17.6213L17.6213 13.3787ZM17.6213 17.6213L30.1213 5.12132L25.8787 0.87868L13.3787 13.3787L17.6213 17.6213ZM13.3787 13.3787L0.87868 25.8787L5.12132 30.1213L17.6213 17.6213L13.3787 13.3787Z" fill="#68686C"/>
</g>
</g>
<defs>
<clipPath id="clip0_122_52">
<rect width="31" height="31" fill="white"/>
</clipPath>
</defs>
</svg>
