<svg width="200" height="268" viewBox="0 0 200 268" fill="none" xmlns="http://www.w3.org/2000/svg">
<g clip-path="url(#clip0_1858_49)">
<path d="M191.608 1.39551H8.39144C4.52931 1.39551 1.39844 4.52019 1.39844 8.37467V259.625C1.39844 263.479 4.52931 266.604 8.39144 266.604H191.608C195.47 266.604 198.601 263.479 198.601 259.625V8.37467C198.601 4.52019 195.47 1.39551 191.608 1.39551Z" fill="#372F1F"/>
<path fill-rule="evenodd" clip-rule="evenodd" d="M198.601 8.37467C198.601 4.52019 195.47 1.39551 191.608 1.39551H8.39144C4.52931 1.39551 1.39844 4.52019 1.39844 8.37467V259.625C1.39844 263.479 4.52932 266.604 8.39144 266.604H191.608C195.47 266.604 198.601 263.479 198.601 259.625V8.37467ZM186.014 25.4426C186.014 21.5881 182.883 18.4634 179.021 18.4634H20.9789C17.1168 18.4634 13.9859 21.5881 13.9859 25.4426V242.557C13.9859 246.411 17.1168 249.536 20.9789 249.536H179.021C182.883 249.536 186.014 246.411 186.014 242.557V25.4426Z" fill="url(#paint0_linear_1858_49)"/>
<mask id="mask0_1858_49" style="mask-type:luminance" maskUnits="userSpaceOnUse" x="0" y="0" width="200" height="268">
<path d="M200 0H0V268H200V0Z" fill="white"/>
<path fill-rule="evenodd" clip-rule="evenodd" d="M198.601 8.37516C198.601 4.52067 195.47 1.396 191.608 1.396H8.39144C4.52931 1.396 1.39844 4.52068 1.39844 8.37516V259.625C1.39844 263.48 4.52932 266.604 8.39144 266.604H191.608C195.47 266.604 198.601 263.48 198.601 259.625V8.37516ZM186.014 25.4431C186.014 21.5885 182.883 18.4639 179.021 18.4639H20.9789C17.1168 18.4639 13.9859 21.5885 13.9859 25.4431V242.558C13.9859 246.412 17.1168 249.537 20.9789 249.537H179.021C182.883 249.537 186.014 246.412 186.014 242.558V25.4431Z" fill="black"/>
</mask>
<g mask="url(#mask0_1858_49)">
<path d="M8.39352 2.44287H191.61V0.349121H8.39352V2.44287ZM2.44946 259.625V8.37516H0.351562V259.625H2.44946ZM191.61 265.557H8.39352V267.651H191.61V265.557ZM197.554 8.37516V259.625H199.652V8.37516H197.554ZM20.9809 19.5108H179.023V17.417H20.9809V19.5108ZM15.0369 242.558V25.4431H12.939V242.558H15.0369ZM179.023 248.49H20.9809V250.584H179.023V248.49ZM184.967 25.4431V242.558H187.065V25.4431H184.967ZM179.023 250.584C183.464 250.584 187.065 246.99 187.065 242.558H184.967C184.967 245.834 182.305 248.49 179.023 248.49V250.584ZM12.939 242.558C12.939 246.99 16.5395 250.584 20.9809 250.584V248.49C17.6981 248.49 15.0369 245.834 15.0369 242.558H12.939ZM179.023 19.5108C182.305 19.5108 184.967 22.1668 184.967 25.4431H187.065C187.065 21.0104 183.464 17.417 179.023 17.417V19.5108ZM20.9809 17.417C16.5395 17.417 12.939 21.0104 12.939 25.4431H15.0369C15.0369 22.1668 17.6981 19.5108 20.9809 19.5108V17.417ZM191.61 267.651C196.052 267.651 199.652 264.058 199.652 259.625H197.554C197.554 262.901 194.893 265.557 191.61 265.557V267.651ZM0.351562 259.625C0.351562 264.058 3.95207 267.651 8.39352 267.651V265.557C5.11071 265.557 2.44946 262.901 2.44946 259.625H0.351562ZM191.61 2.44287C194.893 2.44287 197.554 5.09885 197.554 8.37516H199.652C199.652 3.9425 196.052 0.349121 191.61 0.349121V2.44287ZM8.39352 0.349121C3.95207 0.349121 0.351562 3.94251 0.351562 8.37516H2.44946C2.44946 5.09886 5.11071 2.44287 8.39352 2.44287V0.349121Z" fill="#CBBB84"/>
</g>
<path d="M1.39844 8.37467C1.39844 4.52019 4.52931 1.39551 8.39144 1.39551H191.608C195.47 1.39551 198.601 4.52019 198.601 8.37467V19.5413H1.39844V8.37467Z" fill="url(#paint1_linear_1858_49)"/>
<path d="M1.39844 259.625C1.39844 263.479 4.52931 266.604 8.39144 266.604H191.608C195.47 266.604 198.601 263.479 198.601 259.625V248.458H1.39844V259.625Z" fill="url(#paint2_linear_1858_49)"/>
<path fill-rule="evenodd" clip-rule="evenodd" d="M167.363 247.475C165.066 251.915 162.17 251.485 158.04 253.693C152.24 251.3 151.914 252.708 146.852 248.476V247.475H167.363Z" fill="#CBBB84"/>
<path fill-rule="evenodd" clip-rule="evenodd" d="M167.363 247.475C165.066 251.915 162.17 251.485 158.04 253.693C152.24 251.3 151.914 252.708 146.852 248.476V247.475H167.363Z" fill="#372F1F"/>
<path d="M158.04 253.693C151.277 251.297 153.531 253.198 151.747 252.314C147.142 248.902 149.512 251.207 146.852 248.476C151.914 252.708 152.24 251.299 158.04 253.693Z" fill="#CBBB84"/>
<path fill-rule="evenodd" clip-rule="evenodd" d="M15.3853 54.1602L9.57422 56.6715L15.0357 59.4488L15.3853 59.5999V54.1602Z" fill="#CBBB84"/>
<path fill-rule="evenodd" clip-rule="evenodd" d="M15.3853 54.1602L9.57422 56.6715L15.0357 59.4488L15.3853 59.5999V54.1602Z" fill="#372F1F"/>
<path d="M9.57243 56.6719L9.08984 56.8805C10.7178 58.3181 12.359 58.7757 15.0339 59.4492L9.57243 56.6719Z" fill="#CBBB84"/>
<path fill-rule="evenodd" clip-rule="evenodd" d="M15.384 105.386L4.89453 104.339L15.0344 110.675L15.384 110.825V105.386Z" fill="#CBBB84"/>
<path fill-rule="evenodd" clip-rule="evenodd" d="M15.384 105.386L4.89453 104.339L15.0344 110.675L15.384 110.825V105.386Z" fill="#372F1F"/>
<path d="M4.89453 104.339C6.61329 105.888 6.99957 107.412 8.74069 108.526C10.3687 109.964 12.3595 110.001 15.0344 110.675L4.89453 104.339Z" fill="#CBBB84"/>
<path fill-rule="evenodd" clip-rule="evenodd" d="M184.617 95.2084L197.904 97.0104L185.06 86.1041L184.617 85.8438V95.2084Z" fill="#CBBB84"/>
<path fill-rule="evenodd" clip-rule="evenodd" d="M184.617 95.2084L197.904 97.0104L185.06 86.1041L184.617 85.8438V95.2084Z" fill="#372F1F"/>
<path d="M197.903 97.0103C195.726 94.3429 195.236 91.7187 193.031 89.8016C190.968 87.3268 188.447 87.2632 185.059 86.104L197.903 97.0103Z" fill="#CBBB84"/>
<path fill-rule="evenodd" clip-rule="evenodd" d="M184.617 178.26L191.61 180.062L184.85 169.156L184.617 168.896V178.26Z" fill="#CBBB84"/>
<path fill-rule="evenodd" clip-rule="evenodd" d="M184.617 178.26L191.61 180.062L184.85 169.156L184.617 168.896V178.26Z" fill="#372F1F"/>
<path d="M191.608 180.063C190.462 177.395 190.204 174.771 189.043 172.854C187.958 170.379 186.631 170.315 184.848 169.156L191.608 180.063Z" fill="#CBBB84"/>
<path fill-rule="evenodd" clip-rule="evenodd" d="M15.3842 235.781L3.49609 239.385L14.9879 217.572L15.3842 217.052V235.781Z" fill="#CBBB84"/>
<path fill-rule="evenodd" clip-rule="evenodd" d="M15.3842 235.781L3.49609 239.385L14.9879 217.572L15.3842 217.052V235.781Z" fill="#372F1F"/>
<path d="M3.49609 239.386C5.44402 234.051 5.88183 228.802 7.85504 224.968C9.70015 220.018 11.9564 219.891 14.9879 217.572L3.49609 239.386Z" fill="#CBBB84"/>
<path fill-rule="evenodd" clip-rule="evenodd" d="M117.57 20.5604L133.236 20.5812C131.756 15.4394 130.028 13.1527 122.74 11.8643C121.222 12.0181 120.478 12.4706 119.235 13.6098C117.276 16.7252 117.953 15.8706 117.57 20.5604Z" fill="#CBBB84"/>
<path fill-rule="evenodd" clip-rule="evenodd" d="M117.57 20.5604L133.236 20.5812C131.756 15.4394 130.028 13.1527 122.74 11.8643C121.222 12.0181 120.478 12.4706 119.235 13.6098C117.276 16.7252 117.953 15.8706 117.57 20.5604Z" fill="#372F1F"/>
<path d="M133.235 20.5811C133.16 19.3404 132.845 15.6447 127.973 12.9116C124.247 11.5859 122.752 11.8309 122.738 11.8642C130.027 13.1526 131.754 15.4393 133.235 20.5811Z" fill="#CBBB84"/>
</g>
<defs>
<linearGradient id="paint0_linear_1858_49" x1="1.39844" y1="105.772" x2="198.597" y2="108.379" gradientUnits="userSpaceOnUse">
<stop stop-color="#6B5502"/>
<stop offset="0.0409998" stop-color="#9F8B42"/>
<stop offset="0.96" stop-color="#9F8B42"/>
<stop offset="1" stop-color="#6B5502"/>
</linearGradient>
<linearGradient id="paint1_linear_1858_49" x1="99.9998" y1="1.39551" x2="99.9998" y2="19.5413" gradientUnits="userSpaceOnUse">
<stop stop-color="#6B5502"/>
<stop offset="0.99" stop-color="#9F8B42" stop-opacity="0"/>
</linearGradient>
<linearGradient id="paint2_linear_1858_49" x1="99.9998" y1="266.604" x2="99.9998" y2="248.458" gradientUnits="userSpaceOnUse">
<stop stop-color="#6B5502"/>
<stop offset="0.99" stop-color="#9F8B42" stop-opacity="0"/>
</linearGradient>
<clipPath id="clip0_1858_49">
<rect width="200" height="268" fill="white"/>
</clipPath>
</defs>
</svg>
