<svg width="268" height="200" viewBox="0 0 268 200" fill="none" xmlns="http://www.w3.org/2000/svg">
<g clip-path="url(#clip0_2043_2)">
<path d="M1.39452 8.39177L1.39453 191.609C1.39453 195.471 4.51921 198.602 8.3737 198.602L259.624 198.602C263.478 198.602 266.603 195.471 266.603 191.609L266.603 8.39176C266.603 4.52962 263.478 1.39875 259.624 1.39875L8.37369 1.39876C4.5192 1.39876 1.39452 4.52963 1.39452 8.39177Z" fill="#372F1F"/>
<path fill-rule="evenodd" clip-rule="evenodd" d="M8.37369 1.39876C4.5192 1.39876 1.39452 4.52953 1.39452 8.39177L1.39453 191.609C1.39453 195.471 4.51922 198.602 8.3737 198.602L259.624 198.602C263.478 198.602 266.603 195.471 266.603 191.609L266.603 8.39176C266.603 4.52952 263.478 1.39875 259.624 1.39875L8.37369 1.39876ZM25.4416 13.9862C21.5871 13.9862 18.4624 17.1169 18.4624 20.9792L18.4624 179.021C18.4624 182.883 21.5871 186.014 25.4416 186.014L242.556 186.014C246.41 186.014 249.535 182.883 249.535 179.021L249.535 20.9792C249.535 17.1169 246.41 13.9862 242.556 13.9862L25.4416 13.9862Z" fill="url(#paint0_linear_2043_2)"/>
<mask id="mask0_2043_2" style="mask-type:luminance" maskUnits="userSpaceOnUse" x="0" y="0" width="268" height="200">
<path d="M-8.74228e-06 0L0 200L268 200L268 -1.17147e-05L-8.74228e-06 0Z" fill="white"/>
<path fill-rule="evenodd" clip-rule="evenodd" d="M8.37369 1.39852C4.5192 1.39852 1.39452 4.52929 1.39452 8.39153L1.39453 191.608C1.39453 195.47 4.51922 198.601 8.3737 198.601L259.624 198.601C263.478 198.601 266.603 195.47 266.603 191.608L266.603 8.39151C266.603 4.52928 263.478 1.39851 259.624 1.39851L8.37369 1.39852ZM25.4416 13.9859C21.5871 13.9859 18.4624 17.1167 18.4624 20.9789L18.4624 179.021C18.4624 182.883 21.5871 186.014 25.4416 186.014L242.556 186.014C246.41 186.014 249.535 182.883 249.535 179.021L249.535 20.9789C249.535 17.1167 246.41 13.9859 242.556 13.9859L25.4416 13.9859Z" fill="black"/>
</mask>
<g mask="url(#mask0_2043_2)">
<path d="M2.44141 191.608L2.4414 8.39165L0.347648 8.39165L0.347656 191.608L2.44141 191.608ZM259.624 197.552L8.3737 197.552L8.3737 199.65L259.624 199.65L259.624 197.552ZM265.556 8.39164L265.556 191.608L267.65 191.608L267.65 8.39164L265.556 8.39164ZM8.37369 2.44759L259.624 2.44758L259.624 0.349678L8.37369 0.349689L8.37369 2.44759ZM19.5093 179.021L19.5093 20.9791L17.4155 20.9791L17.4156 179.021L19.5093 179.021ZM242.556 184.965L25.4416 184.965L25.4416 187.063L242.556 187.063L242.556 184.965ZM248.488 20.979L248.488 179.021L250.582 179.021L250.582 20.979L248.488 20.979ZM25.4416 15.035L242.556 15.035L242.556 12.9371L25.4416 12.9371L25.4416 15.035ZM250.582 20.979C250.582 16.5378 246.989 12.9371 242.556 12.9371L242.556 15.035C245.832 15.035 248.488 17.6965 248.488 20.979L250.582 20.979ZM242.556 187.063C246.989 187.063 250.582 183.462 250.582 179.021L248.488 179.021C248.488 182.304 245.832 184.965 242.556 184.965L242.556 187.063ZM19.5093 20.9791C19.5093 17.6965 22.1653 15.035 25.4416 15.035L25.4416 12.9371C21.0089 12.9371 17.4155 16.5378 17.4155 20.9791L19.5093 20.9791ZM17.4156 179.021C17.4156 183.462 21.0089 187.063 25.4416 187.063L25.4416 184.965C22.1653 184.965 19.5093 182.304 19.5093 179.021L17.4156 179.021ZM267.65 8.39164C267.65 3.95038 264.056 0.349678 259.624 0.349678L259.624 2.44758C262.9 2.44758 265.556 5.10912 265.556 8.39164L267.65 8.39164ZM259.624 199.65C264.056 199.65 267.65 196.05 267.65 191.608L265.556 191.608C265.556 194.891 262.9 197.552 259.624 197.552L259.624 199.65ZM2.4414 8.39165C2.4414 5.10913 5.09738 2.44759 8.37369 2.44759L8.37369 0.349689C3.94102 0.349689 0.347648 3.95039 0.347648 8.39165L2.4414 8.39165ZM0.347656 191.608C0.347656 196.05 3.94104 199.65 8.3737 199.65L8.3737 197.552C5.09739 197.552 2.44141 194.891 2.44141 191.608L0.347656 191.608Z" fill="#CBBB84"/>
</g>
<path d="M8.3737 198.602C4.51921 198.602 1.39453 195.471 1.39453 191.609L1.39452 8.39177C1.39452 4.52953 4.5192 1.39876 8.37369 1.39876L19.5404 1.39876L19.5404 198.602L8.3737 198.602Z" fill="url(#paint1_linear_2043_2)"/>
<path d="M259.624 198.601C263.478 198.601 266.603 195.47 266.603 191.608L266.603 8.39153C266.603 4.52929 263.478 1.39852 259.624 1.39852L248.457 1.39852L248.457 198.601L259.624 198.601Z" fill="url(#paint2_linear_2043_2)"/>
<path fill-rule="evenodd" clip-rule="evenodd" d="M54.1602 184.615L56.6715 190.427L59.4488 184.965L59.5999 184.615L54.1602 184.615Z" fill="#CBBB84"/>
<path fill-rule="evenodd" clip-rule="evenodd" d="M54.1602 184.615L56.6715 190.427L59.4488 184.965L59.5999 184.615L54.1602 184.615Z" fill="#372F1F"/>
<path d="M56.6719 190.427L56.8805 190.909C58.3181 189.281 58.7757 187.64 59.4492 184.965L56.6719 190.427Z" fill="#CBBB84"/>
<path fill-rule="evenodd" clip-rule="evenodd" d="M95.2084 15.3845L97.0104 2.09781L86.1041 14.9419L85.8438 15.3845L95.2084 15.3845Z" fill="#CBBB84"/>
<path fill-rule="evenodd" clip-rule="evenodd" d="M95.2084 15.3845L97.0104 2.09781L86.1041 14.9419L85.8438 15.3845L95.2084 15.3845Z" fill="#372F1F"/>
<path d="M97.0118 2.09783C94.3444 4.27476 91.7202 4.76428 89.803 6.96987C87.3282 9.03211 87.2647 11.5538 86.1055 14.9419L97.0118 2.09783Z" fill="#CBBB84"/>
<path fill-rule="evenodd" clip-rule="evenodd" d="M235.365 15.3845L237.167 8.39151L226.26 15.1516L226 15.3845L235.365 15.3845Z" fill="#372F1F"/>
<path d="M237.168 8.39172C234.501 9.53787 231.876 9.79521 229.959 10.9561C227.484 12.0414 227.421 13.3686 226.262 15.1519L237.168 8.39172Z" fill="#CBBB84"/>
<path fill-rule="evenodd" clip-rule="evenodd" d="M235.78 184.616L239.384 196.504L217.571 185.012L217.051 184.616L235.78 184.616Z" fill="#CBBB84"/>
<path fill-rule="evenodd" clip-rule="evenodd" d="M235.78 184.616L239.384 196.504L217.571 185.012L217.051 184.616L235.78 184.616Z" fill="#372F1F"/>
<path d="M239.384 196.504C234.049 194.556 228.8 194.118 224.966 192.145C220.017 190.3 219.889 188.043 217.57 185.012L239.384 196.504Z" fill="#CBBB84"/>
</g>
<defs>
<linearGradient id="paint0_linear_2043_2" x1="105.771" y1="198.602" x2="108.378" y2="1.40308" gradientUnits="userSpaceOnUse">
<stop stop-color="#6B5502"/>
<stop offset="0.0409998" stop-color="#9F8B42"/>
<stop offset="0.96" stop-color="#9F8B42"/>
<stop offset="1" stop-color="#6B5502"/>
</linearGradient>
<linearGradient id="paint1_linear_2043_2" x1="1.39453" y1="100" x2="19.5404" y2="100" gradientUnits="userSpaceOnUse">
<stop stop-color="#6B5502"/>
<stop offset="0.99" stop-color="#9F8B42" stop-opacity="0"/>
</linearGradient>
<linearGradient id="paint2_linear_2043_2" x1="266.603" y1="99.9999" x2="248.457" y2="99.9999" gradientUnits="userSpaceOnUse">
<stop stop-color="#6B5502"/>
<stop offset="0.99" stop-color="#9F8B42" stop-opacity="0"/>
</linearGradient>
<clipPath id="clip0_2043_2">
<rect width="200" height="268" fill="white" transform="translate(0 200) rotate(-90)"/>
</clipPath>
</defs>
</svg>
