<svg width="46" height="37" viewBox="0 0 46 37" fill="none" xmlns="http://www.w3.org/2000/svg">
<g clip-path="url(#clip0_205_596)">
<path d="M45.7505 0V3.80061L17.3535 27.8711L11.043 22.8037L41.0177 0H45.7505Z" fill="#42649F"/>
<path d="M17.3559 30.4047L7.89062 22.8038L9.46799 21.5371L18.9333 29.138L17.3559 30.4047Z" fill="#42649F"/>
<path d="M9.46527 36.7387L0 29.1378L1.57736 27.8711L11.0426 35.472L9.46527 36.7387Z" fill="#42649F"/>
<path d="M45.7505 0L14.1983 25.3374L11.043 22.8037L41.0177 0H45.7505Z" fill="#42649F"/>
<path d="M14.99 28.505L8.67948 33.5726L3.94629 29.7717L10.2568 24.7041L14.99 28.505Z" fill="#42649F"/>
<path d="M10.2559 24.7041L14.9888 28.5047L10.2559 32.3053V24.7041Z" fill="#42649F"/>
</g>
<defs>
<clipPath id="clip0_205_596">
<rect width="46" height="37" fill="white"/>
</clipPath>
</defs>
</svg>
