<svg width="126" height="125" viewBox="0 0 126 125" fill="none" xmlns="http://www.w3.org/2000/svg">
<g clip-path="url(#clip0_205_618)">
<path d="M115.988 9.57129H9.98828V117.571H115.988V9.57129Z" fill="#110000"/>
<path fill-rule="evenodd" clip-rule="evenodd" d="M62.1008 90.7C62.1008 94.15 59.3008 96.95 55.8508 96.95C52.4008 96.95 49.6008 94.15 49.6008 90.7C49.6008 87.25 52.4008 84.45 55.8508 84.45C59.3008 84.45 62.1008 87.25 62.1008 90.7ZM37.1007 31.25C37.1007 27.8 39.9008 25 43.3508 25H79.0383C84.257 25 88.4883 29.2312 88.4883 34.45V50C88.4883 56.875 82.8633 62.5 75.9883 62.5H66.6696C64.9133 62.5 63.4883 63.925 63.4883 65.6813V71.95C63.4883 75.4 60.6945 78.2 57.2383 78.2C53.7883 78.2 50.9883 75.4 50.9883 71.95V61.1126C50.9883 54.9751 55.9633 50 62.1008 50H68.3508C71.8008 50 74.6008 47.2 74.6008 43.75C74.6008 40.3 71.8008 37.5 68.3508 37.5H43.3508C39.9008 37.5 37.1007 34.7 37.1007 31.25ZM107.238 112.5H19.7382C16.2882 112.5 13.4883 109.7 13.4883 106.25V18.75C13.4883 15.3 16.2882 12.5 19.7382 12.5H107.238C110.695 12.5 113.488 15.3 113.488 18.75V106.25C113.488 109.7 110.695 112.5 107.238 112.5ZM0.988281 12.5V112.5C0.988281 119.406 6.58832 125 13.4883 125H113.488C120.395 125 125.988 119.406 125.988 112.5V12.5C125.988 5.6 120.395 0 113.488 0H13.4883C6.58832 0 0.988281 5.6 0.988281 12.5Z" fill="#9EB2D6"/>
</g>
<defs>
<clipPath id="clip0_205_618">
<rect width="126" height="125" fill="white"/>
</clipPath>
</defs>
</svg>
