<svg width="51" height="37" viewBox="0 0 51 37" fill="none" xmlns="http://www.w3.org/2000/svg">
<g clip-path="url(#clip0_205_659)">
<path d="M45.7504 0H41.0176L11.043 22.8037L17.3534 27.8711L45.7504 3.80061V0Z" fill="#C4CCCC"/>
<path d="M45.7515 0L14.1992 25.3374L17.3544 27.8711L45.7515 3.80061V0Z" fill="#A3AFAF"/>
<path d="M7.88672 22.8048L17.352 30.4057L18.9293 29.139L9.46408 21.5381L7.88672 22.8048Z" fill="#C4CCCC"/>
<path d="M0 29.1388L9.46526 36.7397L11.0426 35.473L1.57736 27.8721L0 29.1388Z" fill="#C4CCCC"/>
<path d="M10.2559 24.7031L3.94531 29.7707L8.6785 33.5716L14.9891 28.504L10.2559 24.7031Z" fill="#A3AFAF"/>
<path d="M4.73438 0V3.80061L33.1314 27.8711L39.4418 22.8037L9.46721 0H4.73438Z" fill="#E1E5E5"/>
<path d="M33.1282 30.4047L42.5935 22.8038L41.0161 21.5371L31.5508 29.138L33.1282 30.4047Z" fill="#E1E5E5"/>
<path d="M41.0188 36.7387L50.4841 29.1378L48.9067 27.8711L39.4414 35.472L41.0188 36.7387Z" fill="#E1E5E5"/>
<path d="M4.73438 0L36.2866 25.3374L39.4418 22.8037L9.46721 0H4.73438Z" fill="#C0CFFD"/>
<path d="M35.4941 28.505L41.8047 33.5726L46.5379 29.7717L40.2273 24.7041L35.4941 28.505Z" fill="#C4CCCC"/>
<path d="M14.9867 28.5047L10.2539 24.7041V32.3053L14.9867 28.5047Z" fill="#8D9999"/>
<path d="M40.2289 24.7041L35.4961 28.5047L40.2289 32.3053V24.7041Z" fill="#A3AFAF"/>
<path d="M19.5312 26.0241L25.2407 21.1847L22.3836 18.7637L19.5312 21.0542V26.0241Z" fill="#8D9999"/>
<path d="M22.3836 18.7642L19.5312 16.3457V21.0547L22.3836 18.7642Z" fill="#A3AFAF"/>
<path d="M22.3836 18.7642L19.5312 16.3457V21.0547L22.3836 18.7642Z" fill="#A3AFAF"/>
</g>
<defs>
<clipPath id="clip0_205_659">
<rect width="51" height="37" fill="white"/>
</clipPath>
</defs>
</svg>
