<svg width="34" height="34" viewBox="0 0 34 34" fill="none" xmlns="http://www.w3.org/2000/svg">
<g clip-path="url(#clip0_205_592)">
<path fill-rule="evenodd" clip-rule="evenodd" d="M29.75 12.75H21.25V4.25C21.25 1.90188 19.3471 0 17 0C14.6529 0 12.75 1.90188 12.75 4.25V12.75H4.25C1.90294 12.75 0 14.6519 0 17C0 19.3481 1.90294 21.25 4.25 21.25H12.75V29.75C12.75 32.0981 14.6529 34 17 34C19.3471 34 21.25 32.0981 21.25 29.75V21.25H29.75C32.0971 21.25 34 19.3481 34 17C34 14.6519 32.0971 12.75 29.75 12.75Z" fill="#42649F"/>
</g>
<defs>
<clipPath id="clip0_205_592">
<rect width="34" height="34" fill="white"/>
</clipPath>
</defs>
</svg>
