<svg width="400" height="400" viewBox="0 0 400 400" fill="none" xmlns="http://www.w3.org/2000/svg">
<g clip-path="url(#clip0_181_505)">
<g style="mix-blend-mode:screen" opacity="0.47">
<path d="M332.345 218.599C332.767 291.239 279.3 347.898 216.216 346.077C156.484 344.328 109.055 290.234 107.416 224.521C105.755 158.065 151.363 99.7316 212.232 94.6835C276.597 89.293 331.915 145.048 332.345 218.599Z" fill="url(#paint0_radial_181_505)"/>
</g>
<path d="M360.894 324.445C360.894 324.445 308.063 332.022 293.609 336.182C279.156 340.341 194.979 373.311 162.364 390.885C148.805 398.216 139.857 408.972 122.615 388.125C115.45 379.466 108.721 355.253 101.556 326.256L105.423 319.639L116.994 315.31L104.157 314.736L97.6409 310.179C94.3649 296.649 90.9554 282.528 87.3655 268.8C87.3655 268.017 87.3655 267.187 87.3655 266.325C87.4269 262.583 87.6073 258.301 88.0871 255.072C88.4046 253.127 88.8087 251.572 89.3715 250.742C92.0089 246.849 88.3433 238.161 88.3433 238.161L82.8845 239.005L78.4323 237.562C76.3072 230.801 74.1028 224.375 71.7973 218.44L74.7811 214.941L90.3493 211.499L95.0721 210.46L89.7612 210.023L72.6271 208.605L67.3018 207.638C66.923 206.808 66.5441 205.978 66.1545 205.178C41.6855 154.01 35 120.655 35 114.528C35 108.885 39.9645 90.4958 48.1401 84.1783L48.2916 84.0701C48.9084 83.5788 49.5819 83.1633 50.2976 82.8326C59.7432 78.384 105.77 82.277 158.312 80.8879C210.854 79.4988 255.207 71.1465 255.207 71.1465C255.207 71.1465 265.406 75.642 269.599 88.1795C270.657 91.391 271.241 94.7394 271.334 98.1194C271.803 111.83 261.892 122.574 261.892 122.574L245.772 123.7C246.327 126.204 246.915 128.711 247.536 131.197C248.652 135.801 249.869 140.413 251.187 145.033C255.243 159.198 260.012 173.301 265.619 187.408L260.929 193.773L253.157 204.304L263.13 200.065L269.663 197.291C272.949 205.086 276.499 212.895 280.314 220.717L274.325 227.175L272.543 229.105L274.852 228.171L282.468 225.093C283.911 228.019 285.427 230.96 286.964 233.886L284.189 237.959L288.717 237.191C290.676 240.885 292.715 244.612 294.811 248.339C295.565 249.681 296.333 251.056 297.116 252.413C300.392 258.099 303.808 263.806 307.363 269.536C318.31 266.774 328.992 263.048 339.282 258.402C339.282 258.402 354.006 269.143 361.46 285.584C362.182 287.186 362.831 288.831 363.405 290.534C369.794 309.706 360.894 324.445 360.894 324.445Z" fill="url(#paint1_linear_181_505)"/>
<g style="mix-blend-mode:multiply" opacity="0.3">
<path d="M261.919 122.585L245.773 123.7C246.329 126.203 246.917 128.711 247.537 131.197C248.653 135.801 249.871 140.413 251.189 145.033C189.973 130.172 59.2431 169.986 59.2431 169.986C59.2431 169.986 64.9905 186.276 71.8709 206.325L95.1023 210.459L72.6574 208.605L67.3321 207.638C66.9533 206.808 66.5744 205.978 66.1848 205.177C41.7158 154.01 35.0303 120.654 35.0303 114.528C35.0303 108.885 39.9948 90.4958 48.1704 84.1783C48.2238 84.1465 48.2745 84.1103 48.3219 84.07C59.9394 75.9089 71.1168 92.4115 76.94 106.8C77.9207 109.222 78.5993 111.756 78.9604 114.344C88.9616 119.352 89.3549 123.804 89.3549 123.804L79.1877 122.188C79.0543 123.353 78.9208 124.493 78.7945 125.583C78.3329 128.853 77.5237 132.064 76.3808 135.162L85.296 134.967C94.6766 134.754 228.34 114.525 252.524 106.8C266.869 102.247 269.705 94.0532 269.629 88.1867C270.687 91.3981 271.271 94.7466 271.364 98.1265C271.83 111.844 261.919 122.585 261.919 122.585Z" fill="#C60055"/>
</g>
<g style="mix-blend-mode:multiply" opacity="0.5">
<path d="M247.533 131.196C236.616 131.174 191.856 131.665 152.645 140.382C107.618 150.39 62.1579 167.29 55.8945 166.243C49.6311 165.197 36.9204 126.195 38.3816 114.729C39.8428 103.263 47.9715 88.2544 54.224 88.0307C60.4766 87.8071 72.5812 113.575 72.5812 113.575C72.5812 113.575 75.8716 114.986 79.2018 116.461C82.5319 117.937 85.4363 120.12 85.5806 120.336C85.8873 120.751 89.3436 123.807 89.3436 123.807C89.3436 123.807 84.2348 122.873 80.6846 122.454C80.1726 122.391 79.6643 122.301 79.1621 122.183C76.8821 121.598 74.6684 120.779 72.5559 119.741C72.5559 119.741 66.8229 149.25 60.5596 146.021C54.2962 142.792 47.0154 131.099 48.0473 121.621C49.0791 112.143 52.9577 108.271 56.8145 109.83C60.6714 111.388 61.0863 120.048 58.2758 120.993C55.4652 121.938 50.2445 119.532 50.2445 119.532C50.2445 119.532 49.2018 130.792 55.2415 129.652C61.2812 128.512 70.6762 117.443 66.4044 110.151C62.1326 102.859 54.4081 99.6158 47.4339 110.775C40.4598 121.934 47.0154 145.184 53.0551 151.437C59.0948 157.689 64.6257 154.875 72.4477 153.731C80.2697 152.587 176.1 133.888 204.552 129.233C231.861 124.752 245.762 123.706 245.762 123.706C246.328 126.199 246.92 128.707 247.533 131.196Z" fill="#C60055"/>
</g>
<g style="mix-blend-mode:multiply" opacity="0.3">
<path d="M74.807 214.935C77.5202 222.904 80.3055 231.17 82.9104 239.028L78.4546 237.585C76.3296 230.831 74.1251 224.409 71.8232 218.463L74.807 214.935Z" fill="#C60055"/>
</g>
<g style="mix-blend-mode:multiply" opacity="0.3">
<path d="M360.896 324.445C360.896 324.445 308.065 332.022 293.611 336.182C279.158 340.342 194.981 373.311 162.366 390.885C148.807 398.216 139.859 408.972 122.617 388.125C115.452 379.466 108.723 355.253 101.558 326.256L105.425 319.639C111.808 344.26 118.461 369.754 118.461 369.754L122.834 366.207C122.834 366.207 117.826 349.102 121.989 332.429C126.153 315.757 137.846 310.948 145.343 318.041C152.343 324.647 157.25 335.839 162.586 358.259C162.615 358.392 162.647 358.529 162.676 358.666C163.037 360.174 163.398 361.744 163.758 363.357C165.977 373.134 228.824 351.122 290.826 329.716C331.257 315.746 350.05 299.41 358.244 289.755L358.287 289.708C359.374 288.427 360.397 287.093 361.35 285.71C361.426 285.62 361.459 285.573 361.459 285.573C362.18 287.175 362.83 288.82 363.403 290.523C369.796 309.707 360.896 324.445 360.896 324.445Z" fill="#C60055"/>
</g>
<g style="mix-blend-mode:multiply" opacity="0.5">
<path d="M122.82 366.222C122.82 366.222 124.837 374.906 131.093 374.487C137.349 374.069 143.605 368.79 143.046 359.753C142.487 350.715 137.45 344.321 132.944 346.27C128.437 348.218 125.804 353.081 127.193 355.723C128.582 358.364 132.944 361.701 132.944 361.701C132.944 361.701 129.697 356.693 133.03 354.33C136.364 351.967 139.842 357.938 137.479 363.09C135.116 368.242 130.389 370.457 127.33 362.116C124.27 353.774 118.573 330.283 135.812 324.442C153.051 318.601 162.016 374.036 155.414 383.385C150.669 390.102 142.065 395.237 134.127 391.589C127.416 388.49 122.997 380.866 120.605 375.505C119.895 373.932 119.725 372.169 120.122 370.49C120.518 368.811 121.46 367.31 122.798 366.222H122.82Z" fill="#C60055"/>
</g>
<g style="mix-blend-mode:screen" opacity="0.6">
<path d="M339.275 258.405C333.932 264.654 247.446 294.557 202.134 306.236C156.822 317.914 149.458 317.348 144.58 315.688C140.355 314.245 137.592 314.732 136.942 314.891L307.359 269.529C318.306 266.771 328.986 263.048 339.275 258.405Z" fill="#FF8390"/>
</g>
<g style="mix-blend-mode:multiply" opacity="0.15">
<path d="M178.707 357.883C180.15 361.718 252.218 340.161 282.341 329.525C327.173 313.693 348.005 299.442 346.562 295.535C345.278 292.056 306.052 303.335 283.784 310.547C229.535 328.129 177.108 353.662 178.707 357.883Z" fill="#EF7A98"/>
</g>
<g style="mix-blend-mode:multiply" opacity="0.4">
<path d="M75.7986 137.466C73.8503 144.231 69.5605 152.212 64.4336 154.214C64.4336 154.214 151.984 137.052 165.153 134.544C224.72 123.215 260.135 120.888 260.135 120.888C265.991 114.188 268.505 107.932 268.163 101.806C268.163 101.806 250.845 118.601 164.839 130.168C86.5394 140.685 75.7986 137.466 75.7986 137.466Z" fill="#EF7A98"/>
</g>
<g style="mix-blend-mode:multiply" opacity="0.3">
<path d="M94.2564 275.93C93.4807 272.682 92.0916 267.776 90.2408 261.83C89.981 257.215 94.6749 250.385 94.2564 249.025C93.8379 247.665 91.9581 237.556 91.9581 237.556L88.3755 238.18C88.3755 238.18 92.0339 246.875 89.3929 250.768C88.8301 251.591 88.4224 253.138 88.1157 255.076C87.6142 258.323 87.4302 262.591 87.3652 266.34C87.3652 267.198 87.3652 268.035 87.3652 268.818C90.9732 282.55 94.3646 296.657 97.6442 310.191L104.164 314.758C99.5961 297.137 95.4217 280.865 94.2564 275.93Z" fill="#C60055"/>
</g>
<g style="mix-blend-mode:multiply" opacity="0.3">
<path d="M282.461 225.094L274.888 228.276L257.147 235.712L273.336 225.228L280.303 220.718L274.314 227.176L272.535 229.106L274.844 228.172L282.461 225.094Z" fill="#C60055"/>
</g>
<g style="mix-blend-mode:multiply" opacity="0.3">
<path d="M288.706 237.191L273.712 244.493L286.957 233.886L284.182 237.959L288.706 237.191Z" fill="#C60055"/>
</g>
<g style="mix-blend-mode:multiply" opacity="0.3">
<path d="M269.652 197.287L263.259 200.426L233.631 214.94L260.301 191.979L265.612 187.408L260.918 193.773L253.15 204.304L263.122 200.065L269.652 197.287Z" fill="#C60055"/>
</g>
<g style="mix-blend-mode:multiply" opacity="0.5">
<path d="M60.0868 117.497C59.9353 119.214 59.3291 120.647 58.2828 120.997C55.4614 121.931 50.2588 119.532 50.2588 119.532C50.2588 119.532 56.45 117.919 60.0868 117.497Z" fill="#C60055"/>
</g>
<g style="mix-blend-mode:screen" opacity="0.4">
<path d="M255.052 72.6875C260.013 75.9815 263.625 79.7157 265.299 84.0886C265.299 84.0886 230.461 100.865 172.052 104.708C113.643 108.55 79.0612 99.0723 79.0612 99.0723C75.4244 92.1812 70.2254 86.5167 63.6914 81.9058C63.6914 81.9058 117.616 84.3447 173.333 81.2708C229.05 78.1968 255.052 72.6875 255.052 72.6875Z" fill="#FF8390"/>
</g>
<g style="mix-blend-mode:multiply" opacity="0.5">
<path d="M70.2818 129.444C68.0485 137.71 64.4153 147.999 60.5656 146.04C55.1357 143.219 48.8904 133.972 48.0605 125.374C49.1996 127.199 50.898 128.606 52.9024 129.386C52.9024 129.386 52.9493 129.386 52.9637 129.415C52.9782 129.444 52.6318 131.042 70.2818 129.444Z" fill="#C60055"/>
</g>
<g style="mix-blend-mode:multiply" opacity="0.5">
<path d="M67.2649 103.359C62.4988 103.359 58.6672 103.467 57.2457 103.51H57.141C56.8235 103.51 56.6431 103.51 56.6431 103.51C56.6431 103.51 52.4363 93.0256 45.8193 95.0028C48.5072 90.915 51.5379 88.1224 54.2078 88.0322C57.776 87.9276 63.2096 96.2078 67.2649 103.359Z" fill="#C60055"/>
</g>
<g style="mix-blend-mode:multiply" opacity="0.5">
<path d="M157.583 370.435C157.673 376.381 156.981 381.176 155.418 383.38C150.667 390.109 142.051 395.236 134.131 391.584L134.085 391.566C131.511 390.328 129.44 388.245 128.218 385.664C125.375 379.826 123.528 371.86 122.824 366.221V366.25C122.929 366.704 124.679 373.613 129.679 374.425C129.957 374.541 133.493 375.702 157.583 370.435Z" fill="#C60055"/>
</g>
<g style="mix-blend-mode:multiply" opacity="0.5">
<path d="M138.06 361.407L132.947 361.725C132.947 361.725 129.7 356.713 133.037 354.361C136.01 352.25 139.088 356.76 138.06 361.407Z" fill="#C60055"/>
</g>
<g style="mix-blend-mode:multiply" opacity="0.5">
<path d="M132.948 361.726L127.215 361.817C124.123 353.201 118.812 330.24 135.813 324.478C143.281 321.952 149.194 330.904 152.968 342.64C146.648 343.382 140.377 344.49 134.185 345.96C134.131 345.972 134.075 345.982 134.019 345.989C134.004 345.992 133.988 345.992 133.973 345.989C133.618 346.031 133.273 346.127 132.948 346.274C128.452 348.218 125.811 353.093 127.2 355.734C128.589 358.375 132.948 361.726 132.948 361.726Z" fill="#C60055"/>
</g>
<g style="mix-blend-mode:multiply" opacity="0.4">
<path d="M358.238 289.766C354.782 294.171 348.944 301.275 342.879 307.34C333.315 316.905 308.38 326.462 282.461 335.868C256.542 345.274 162.382 381.378 162.382 381.378C163.933 375.559 163.948 364.98 162.667 358.677C163.028 360.185 163.388 361.755 163.749 363.367C165.968 373.145 228.815 351.133 290.817 329.727C331.251 315.757 350.041 299.435 358.238 289.766Z" fill="#EF7A98"/>
</g>
<g style="mix-blend-mode:screen" opacity="0.2">
<path d="M292.84 261.945C290.275 267.061 280.425 266.805 276.442 266.82C245.154 266.849 201.257 282.695 137.851 305.5C131.169 307.9 123.729 310.75 117.365 307.304C106.382 301.362 112.989 284.419 103.788 251.457C100.03 237.912 95.5527 224.578 90.3741 211.51L95.0969 210.471L89.786 210.034C87.6754 204.843 86.3621 202.021 86.3621 202.021C81.9893 192.641 79.0921 187.918 80.7229 182.29C84.2803 170.069 105.401 166.602 124.018 163.326C216.901 147.051 235.305 138.071 247.492 151.802C251.883 156.735 248.005 156.237 257.234 183.058C258.316 186.211 259.33 189.191 260.311 191.991L233.641 214.952L263.27 200.437C266.813 210.366 269.847 218.163 273.347 225.238L257.158 235.723L274.898 228.287C276.774 231.838 278.828 235.291 281.053 238.635L273.722 244.505L282.211 240.359C289.236 250.617 295.301 257.028 292.84 261.945Z" fill="#FF8390"/>
</g>
<g style="mix-blend-mode:multiply" opacity="0.3">
<path d="M282.461 225.111L274.884 228.294C274.867 228.26 274.853 228.225 274.841 228.189L282.461 225.111Z" fill="#C60055"/>
</g>
<g style="mix-blend-mode:multiply" opacity="0.05">
<path d="M149.012 311.68C149.012 311.68 140.865 218.595 182.313 206.898C223.761 195.201 274.846 278.184 274.846 278.184L149.012 311.68Z" fill="#C60055"/>
</g>
<path style="mix-blend-mode:color-burn" opacity="0.2" d="M186.869 162.112C180.126 159.641 171.986 167.546 168.66 174.09C167.303 176.757 165.413 180.491 166.903 182.389C170.442 186.895 192.328 180.368 193.1 171.045C193.41 167.311 190.293 163.364 186.869 162.112Z" fill="url(#paint2_linear_181_505)"/>
<path opacity="0.3" d="M193.096 172.842C192.306 182.247 170.442 188.796 166.906 184.279C166.343 183.528 166.268 182.547 166.455 181.421C166.521 181.78 166.676 182.116 166.906 182.399C170.406 186.876 191.779 180.516 193.02 171.409C193.12 171.88 193.146 172.363 193.096 172.842Z" fill="#FFCBA3"/>
<path style="mix-blend-mode:color-burn" opacity="0.2" d="M167.577 330.286C169.666 325.574 176.918 324.394 181.979 325.596C185.883 326.505 191.259 329.471 190.967 332.299C190.444 337.314 172.061 342.131 167.876 336.575C166.458 334.706 166.837 331.957 167.577 330.286Z" fill="url(#paint3_linear_181_505)"/>
<path opacity="0.3" d="M190.948 334.258C190.461 339.309 172.06 344.155 167.857 338.588C166.951 337.386 166.804 335.802 166.991 334.413C167.086 335.191 167.384 335.931 167.857 336.556C171.844 341.864 188.664 337.761 190.735 333.057C190.917 333.429 190.991 333.846 190.948 334.258Z" fill="#FFCBA3"/>
<path style="mix-blend-mode:color-burn" opacity="0.2" d="M167.27 189.27C169.113 189.039 171.033 191.907 171.653 194.202C172.234 196.367 172.151 199.791 170.373 200.592C168.594 201.393 165.448 199.253 164.531 196.576C163.474 193.495 165.238 189.522 167.27 189.27Z" fill="url(#paint4_linear_181_505)"/>
<path opacity="0.3" d="M170.366 202.605C168.562 203.435 165.433 201.252 164.532 198.542C164.233 197.594 164.155 196.589 164.304 195.605C164.346 195.94 164.422 196.269 164.532 196.587C165.433 199.257 168.558 201.403 170.366 200.556C171.304 200.141 171.758 198.975 171.87 197.669C172.105 199.672 171.769 201.966 170.366 202.605Z" fill="#FFCBA3"/>
<g style="mix-blend-mode:screen" opacity="0.4">
<path d="M252.724 75.7911C252.382 74.8567 182.218 82.5596 182.114 84.6739C182.009 86.8386 206.648 93.9535 231.542 86.301C242.11 83.0611 253.172 77.025 252.724 75.7911Z" fill="#FF8390"/>
</g>
<g style="mix-blend-mode:multiply" opacity="0.15">
<path d="M181.594 356.603C180.671 353.947 210.494 339.49 221.047 335.215C223.475 334.23 259.291 319.975 260.644 322.854C261.643 324.99 244.408 337.809 224.449 345.797C205.399 353.428 182.359 358.796 181.594 356.603Z" fill="#EF7A98"/>
</g>
<path d="M227.381 206.692C229.722 197.352 232.619 187.682 228.081 178.406C226.703 175.578 224.228 173.581 222.326 171.059C219.685 167.574 217.94 163.601 215.981 159.804C213.777 155.517 212.207 154.902 207.65 153.305C205.21 152.48 205.74 151.789 204.04 149.962C202.092 147.872 198.482 147.036 195.506 146.848C191.784 146.6 187.62 148.444 183.96 147.765C179.446 146.907 179.069 141.933 177.894 138.684C176.72 135.435 175.556 133.451 171.834 132.26C170.363 131.789 168.765 131.944 167.928 130.689C166.133 127.948 170.26 120.947 170.567 117.973C170.967 114.049 169.784 110.328 169.799 106.453C169.811 101.737 173.084 97.5447 173.158 92.9239C172.559 100.599 172.541 108.308 173.106 115.986C173.365 119.495 174.708 121.034 176.374 124.024C177.903 126.728 178.256 128.77 181.435 130.51C186.415 133.262 192.699 133.975 198.126 135.775C202.544 137.244 204.72 138.772 206.038 142.456C207.257 145.855 209.207 148.794 213.676 149.989C218.647 151.302 222.226 148.16 225.798 151.385C228.999 154.281 233.291 159.207 234.108 163.189C235.356 169.262 234.342 176.658 234.433 182.845C234.526 187.04 234.106 191.231 233.181 195.324C232.067 200.124 229.615 203.576 227.381 206.692Z" fill="url(#paint5_linear_181_505)"/>
<path d="M132.816 204.003C137.016 210.752 149.54 208.679 155.311 213.007C157.183 214.42 156.225 214.853 159.212 214.83C164.291 214.777 167.578 210.246 172.698 211.522C176.903 212.556 181.105 215.751 184.897 217.486C189.283 219.497 194.412 220.734 198.613 222.994C203.632 225.691 204.97 230.554 204.424 235.222C203.698 241.342 201.325 247.75 198.766 253.439C202.611 248.894 205.292 243.419 209.218 238.765C211.62 235.958 215.091 233.694 217.382 231.034C220.008 227.995 220.225 221.262 220.894 217.727C221.376 215.133 221.768 212.239 220.691 209.722C217.749 209.392 214.97 209.631 212.498 207.91C207.413 204.41 206.084 198.006 201.39 194.151C197.999 191.377 195.578 192.36 191.289 192.678C189.046 192.838 188.494 191.934 186.272 191.812C185.295 195.931 191.13 198.256 191.761 202.023C188.144 203.106 183.893 202.559 180.494 204.202C179.773 204.553 179.513 205.602 178.747 205.81C176.332 206.455 171.239 205.423 169.02 205.05C155.694 202.787 146.924 196.163 146.388 184.403C146.155 179.274 147.986 174.335 147.925 169.28C142.536 168.063 135.332 177.727 133.242 180.657C127.386 189.03 129.626 197.515 132.816 204.003Z" fill="url(#paint6_linear_181_505)"/>
<path opacity="0.67" d="M156.086 247.811C154.337 250.535 152.65 254.831 153.648 257.826C155.283 262.765 156.11 261.175 162.379 262.846C172.821 265.645 177.39 276.392 189.694 272.304C208.39 266.084 217.534 244.692 224.137 231.796C229.971 220.318 226.197 209.489 226.468 197.372C226.837 181.029 232.057 165.619 229.3 149.17C227.492 138.325 222.63 123.699 215.191 114.014C202.521 97.5892 187.134 114.701 178.719 124.353C166.166 138.727 151.553 152.125 142.175 167.996C135.454 179.373 129.734 194.115 143.173 204.17C148.261 207.976 153.803 209.424 156.958 214.709C160.021 219.773 158.809 225.342 159.848 230.665C164.417 253.847 197.26 231.424 204.028 220.503C204.617 221.023 205.931 221.484 206.504 221.973C212.178 214.674 218.127 193.978 202.196 189.858C193.655 187.655 190.774 194.393 185.06 199.277C178.187 190.577 194.869 175.593 200.151 168.146C216.397 179.11 221.672 189.491 217.777 205.606C215.48 215.12 212.161 224.641 209.299 234.067C207.765 239.121 206.185 245.534 200.21 248.567C197.246 250.092 192.023 250.835 188.662 252.149C181.258 255.034 175.713 256.251 167.347 253.925C152.282 249.755 153.452 237.944 148.154 229.048C151.703 236.722 151.687 245.179 156.086 247.811Z" fill="url(#paint7_linear_181_505)"/>
<path opacity="0.91" d="M158.643 252.129C159.006 256.01 166.112 258.449 169.716 260.707C172.183 262.248 174.936 266.096 177.537 267.12C181.263 268.625 181.273 267.006 185.335 266.112C189.098 265.283 192.681 265.82 196.51 266.289C212.442 245.547 224.354 223.051 223.748 198.336C223.505 188.436 220.201 179.171 220.742 169.338C221.083 163.205 227.726 125.556 210.424 126.083C205.934 126.216 204.86 129.988 201.746 131.589C198.631 133.191 194.89 133.163 191.262 134.418C170.056 141.769 159.782 161.091 158.828 177.591C158.386 185.146 155.379 196.818 160.471 203.824C163.717 208.285 171.137 209.307 173.87 213.925C176.097 217.702 173.238 222.561 176.411 226.18C180.904 231.306 185.989 225.947 190.973 222.922C194.907 220.495 199.01 218.353 203.251 216.514C204.184 216.112 206.325 216.421 207.128 215.876C212.126 212.504 212.663 203.898 209.255 199.756C200.773 189.403 182.32 198.095 178.301 206.662C180.709 207.934 188.84 211.239 189.277 213.415C189.67 215.347 183.875 220.922 182.397 222.424C179.679 219.857 176.628 216.932 175.249 213.735C174.149 211.194 174.708 208.656 173.074 206.146C171.715 204.073 169.282 202.879 167.582 201.036C160.141 192.955 166.332 180.768 172.135 173.204C176.186 173.481 181.162 174.463 184.281 172.611C187.701 170.558 188.006 165.737 188.319 162.826C188.946 157.027 188.362 150.721 193.056 145.679C198.158 140.187 202.562 141.058 206.896 145.844C210.666 149.983 210.268 154.261 210.988 158.933C211.629 163.094 213.665 166.05 215.703 169.855C221.045 179.947 221.359 190.382 220.477 200.87C219.749 208.026 218.403 215.105 216.455 222.029C214.33 230.139 213.396 238.433 208.952 246.081C201.614 258.683 184.393 268.486 167.597 258.001L158.643 252.129Z" fill="url(#paint8_linear_181_505)"/>
<path d="M166.905 204.067C172.355 207.376 174.117 212.726 176.07 217.473C176.72 219.055 177.304 224.858 179.363 225.912C183.316 227.94 197.475 223.842 201.352 221.734C208.908 217.641 213.794 200.024 214.382 193.148C214.967 186.547 211.688 170.758 200.746 169.279C199.601 169.128 188.61 172.231 187.582 172.623C173.171 178.235 173.702 189.853 177.872 199.533C179.971 204.432 177.063 210.831 180.274 215.032C182.659 213.349 190.761 206.057 193.37 209.565C194.725 211.387 190.903 219.894 188.657 221.281C178.714 227.631 173.814 210.001 166.905 204.067Z" fill="#79FFFF"/>
<path d="M210.163 193.113C214.466 186.453 204.353 174.864 194.272 176.126C186.025 177.151 183.261 183.953 181.582 189.201C180.614 192.235 178.162 197.125 182.084 199.168C184.321 200.328 188.802 202.773 191.276 203.37C194.087 204.059 194.805 202.428 196.194 200.618C198.923 197.054 195.823 195.228 190.955 194.373C191.783 191.784 196.521 185.445 200.772 185.56C205.989 185.698 206.82 189.775 206.737 192.54C206.591 197.301 207.941 202.322 205.504 206.827C204.281 209.079 200.041 211.747 200.67 214.209C206.576 208.644 210.768 201.062 210.163 193.113Z" fill="white"/>
<path d="M220.839 117.741C222.351 109.118 233.663 87.8075 217.412 85.9931C213.732 85.5888 210.192 88.2366 206.764 87.8049C202.402 87.2718 198.69 80.9953 195.608 78.0616C193.021 75.5995 191.082 73.4857 187.652 72.1657C185.59 71.3469 183.53 71.3928 181.841 69.8568C178.796 67.0887 178.958 61.817 178.537 58.108C177.778 51.2869 176.519 44.5308 174.771 37.894C172.62 29.7558 172.835 22.1975 173.917 13.9376C174.293 11.0745 174.695 7.54371 173.801 4.94344C173.085 17.3673 173.596 33.1591 180.525 43.8336C183.686 48.7022 187.787 48.8224 193.218 50.3235C199.571 52.2047 206.142 53.2497 212.765 53.4322C219.782 53.6143 221.26 56.5461 225.453 60.8102C226.582 61.9679 228.056 62.1721 229.256 63.3466C232.979 66.9901 233.284 74.0379 233.782 78.8249C234.415 84.9504 235.546 90.4864 233.815 96.5429C231.479 104.563 226.704 110.233 220.839 117.741Z" fill="url(#paint9_linear_181_505)"/>
<path d="M226.687 96.4943C228.491 89.2913 218.93 89.9727 213.632 90.4389C207.241 91.0055 203.434 89.1372 199.62 84.7927C194.835 79.2694 190.75 72.6254 186.892 66.6373C185.242 64.0722 183.219 60.8016 186.413 58.6986C189.757 56.48 197.964 55.9422 201.919 56.3587C212.497 57.462 218.79 62.6555 222.826 70.3128C224.788 74.0986 226.276 78.1112 227.258 82.2603C228.462 87.1371 226.977 90.5564 226.687 96.4943Z" fill="url(#paint10_linear_181_505)"/>
<path d="M168.675 129.679C167.567 125.731 170.228 120.515 171.747 116.931C173.968 111.692 176.748 107.413 180.101 102.695C181.081 101.319 182.441 99.3755 179.433 99.1784C181.676 93.5781 187.117 87.0303 191.95 82.6816C198.114 77.1357 205.957 73.7466 213.479 71.335C208.534 71.3351 202.727 73.2237 197.999 74.4456C190.951 76.2674 187.329 80.1165 181.302 82.992C179.044 84.0724 178.142 83.9637 176.37 85.6335C173.863 87.9889 172.076 91.0081 171.217 94.3396C168.289 104.999 169.126 116.158 168.675 129.679Z" fill="url(#paint11_linear_181_505)"/>
<path d="M167.921 130.162C167.26 129.696 167.375 128.448 167.393 127.796C167.418 126.792 167.598 125.798 167.927 124.849C168.278 123.97 168.707 123.124 169.209 122.322C169.83 121.091 170.262 119.773 170.489 118.412C171.388 114.3 172.662 110.319 175.392 106.7C176.997 104.634 178.986 102.143 181.553 100.839C180.058 103.293 178.691 105.821 177.455 108.414C176.503 110.49 176.036 112.684 175.114 114.768C174.162 116.668 172.981 118.445 171.595 120.057C170.578 121.247 169.84 122.651 169.437 124.164C169.033 125.677 168.974 127.261 169.263 128.8C169.405 129.811 169.628 130.808 169.931 131.782C168.578 131.894 167.539 130.447 167.921 130.162Z" fill="url(#paint12_linear_181_505)"/>
<path d="M179.561 99.0405C178.948 98.5277 180.122 96.8721 180.349 96.3962C181.041 94.9137 181.694 93.4227 182.432 91.9645C183.739 89.3363 185.249 86.3262 187.889 84.4266C191.268 81.9885 194.128 79.1255 197.825 76.9518C201.524 74.847 205.464 73.1992 209.56 72.0446C210.571 71.7541 212.358 71.0829 213.503 71.2819C212.299 72.3082 210.092 72.7369 208.511 73.2542C206.138 74.1206 203.85 75.2052 201.676 76.4942C200.221 77.1834 198.821 77.9837 197.488 78.888C195.976 80.0667 194.417 81.1974 192.935 82.4315C189.446 85.1458 186.451 88.4406 184.079 92.1715C182.659 94.4913 180.73 96.6695 179.561 99.0405Z" fill="url(#paint13_linear_181_505)"/>
<path d="M180.705 168.049C181.679 166.666 183.749 166.463 185.452 166.12C188.244 165.607 191.007 164.947 193.729 164.145C197.047 163.116 200.115 161.409 202.738 159.132C201.686 161.072 198.489 162.861 196.451 164.015C194.311 165.291 192.029 166.31 189.651 167.052C187.621 167.672 183.047 169.116 180.705 168.049Z" fill="url(#paint14_linear_181_505)"/>
<path style="mix-blend-mode:screen" d="M279.292 200.904C286.664 141.209 254.703 88.1323 207.906 82.3535C161.109 76.5746 117.197 120.282 109.825 179.977C102.453 239.672 134.414 292.749 181.211 298.528C228.008 304.307 271.92 260.599 279.292 200.904Z" fill="url(#paint15_radial_181_505)"/>
<path style="mix-blend-mode:screen" d="M262.747 121.12C268.405 61.2644 244.493 10.0482 209.338 6.72528C174.184 3.40241 141.099 49.2312 135.441 109.087C129.784 168.942 153.696 220.159 188.85 223.481C224.005 226.804 257.089 180.976 262.747 121.12Z" fill="url(#paint16_radial_181_505)"/>
<path style="mix-blend-mode:color-dodge" d="M246.422 196.846C250.935 160.306 231.372 127.817 202.729 124.28C174.086 120.743 147.208 147.497 142.695 184.037C138.183 220.577 157.745 253.066 186.389 256.603C215.032 260.14 241.91 233.386 246.422 196.846Z" fill="url(#paint17_radial_181_505)"/>
<path d="M139.19 250.089C144.684 246.67 149.776 240.337 156.737 239.991C154.821 245.361 161.937 244.712 166.029 244.926C170.443 245.161 180.244 248.634 184.091 245.999C187.937 243.364 185.428 239.496 190.021 237.352C194.947 235.072 202.304 235.574 206.96 232.402C212.523 228.623 215.515 220.378 218.877 215.086C224.431 206.347 231.668 196.141 233.101 186.079C234.277 177.844 234.673 168.748 233.532 161.427C235.836 168.248 236.243 174.833 235.289 182.458C234.407 190.002 234.465 197.625 235.463 205.154C236.555 214.604 237.675 217.287 230.269 223.819C219.969 232.891 210.134 243.936 203.959 255.59C201.212 260.757 200.52 262.256 194.337 264.083C173.772 270.132 158.378 261.893 139.19 250.089Z" fill="url(#paint18_linear_181_505)"/>
<path d="M139.262 250.427C143.933 245.864 152.578 245.97 158.807 244.748C160.342 247.044 165.941 247.4 168.818 247.871C170.617 248.125 172.427 248.285 174.242 248.35C176.693 248.483 181.561 249.315 183.823 248.455C184.74 248.108 187.799 245.547 188.417 244.259C188.742 243.596 188.136 242.148 188.345 241.358C188.855 239.432 190.017 239.026 192.156 238.502C195.509 237.722 199.095 238.573 202.274 237.877C203.536 237.598 203.628 237.269 204.692 236.555C207.354 234.782 210.464 233.463 213.086 231.666C214.62 230.613 216.165 229.356 216.466 227.734C216.732 226.339 216.04 224.874 216.37 223.37C217.214 219.72 219.318 215.902 221.32 212.601C223.322 209.3 225.848 206.18 227.895 202.998C231.868 196.828 233.015 190.943 233.563 184.144C233.34 198.187 219.823 207.877 214.795 220.562C212.945 225.202 209.927 230.177 204.618 232.828C197.487 236.378 187.567 234.916 182.475 241.28C186.602 239.774 186.233 242.708 183.848 244.886C181.463 247.065 177.556 245.14 174.417 244.807C169.386 244.287 163.628 245.076 158.925 243.249C153.605 241.183 160.93 239.743 163.151 237.955C154.339 234.018 142.993 244.639 139.262 250.427Z" fill="url(#paint19_linear_181_505)"/>
<path d="M134.343 175.039C144.533 166.452 162.54 165.504 176.149 165.822C181.218 165.903 184.931 166.245 188.19 162.987C194.515 156.682 198.566 149.561 209.169 147.144C219.614 144.755 229.622 137.25 234.425 128.774C237.587 123.22 238.189 113.553 238.047 107.608C237.998 105.768 236.914 103.204 236.576 101.249C235.686 95.9452 236.546 90.7396 236.914 85.416C237.211 81.0897 237.625 76.2857 234.867 72.7597C231.631 68.6287 227.772 64.1342 224.701 60.0216C227.579 65.4281 227.207 72.9918 229.307 78.8654C230.466 82.1066 231.867 83.4337 231.461 86.7601C230.775 92.3615 226.935 98.0701 224.479 103.235C222.731 106.893 221.763 112.884 218.266 115.768C216.737 117.033 215.465 116.965 213.228 117.747C208.406 119.447 206.097 121.305 203.213 124.749C195.924 133.28 184.205 137.716 176.535 145.989C172.457 150.381 170.475 154.861 164.937 157.65C155.815 162.3 144.909 164.509 134.343 175.039Z" fill="url(#paint20_linear_181_505)"/>
<path d="M176.12 147.883C177.059 142.663 185.328 139.241 189.914 136.571C197.054 132.439 201.866 126.361 208.51 121.805C215.154 117.25 221.982 114.945 224.687 107.45C226.676 101.979 230.251 97.1386 232.411 91.7492C234.179 87.3361 234.456 81.8225 234.332 77.2064C234.157 70.9153 231.252 63.7948 225.63 59.4059C222.804 57.2072 219.675 54.7837 216.219 53.6362C220.578 58.2724 223.716 62.1502 224.873 68.0167C225.746 72.456 225.663 77.674 228.185 81.6993C229.281 83.446 229.83 84.5552 229.677 86.7458C229.452 90.5231 227.4 93.9884 225.695 97.3964C223.804 101.187 223.094 105.271 221.485 109.12C220.433 111.782 218.564 114.042 216.147 115.575C212.562 117.586 208.763 118.256 205.637 121.084C200.246 125.966 195.264 130.784 189.4 135.265C186.218 137.667 182.338 139.917 179.847 142.817C178.454 144.438 177.741 146.769 176.12 147.883Z" fill="url(#paint21_linear_181_505)"/>
<path d="M136.695 207.107C129.552 203.991 131.099 189.725 133.705 184.996C137.355 178.396 147.843 170.356 157.114 170.11C156.969 172.325 158.525 171.862 159.422 173.291C161.185 176.062 159 178.543 158.766 181.432C165.165 180.37 170.944 177.318 177.561 176.385C181.327 175.855 184.631 176.678 187.502 175.057C190.556 173.314 192.804 169.867 195.324 167.604C198.242 164.994 201.332 162.465 203.488 159.355C204.8 157.45 206.106 155.411 207.299 153.496C202.098 161.274 192.311 167.784 181.171 167.875C181.914 165.127 184.002 162.347 184.884 159.751C180.132 159.039 174.129 160.366 169.843 162.02C165.097 163.862 164.12 164.012 159.131 164.349C150.711 164.923 141.251 166.659 136.566 172.637C133.285 176.806 131.72 180.798 126.958 183.686C123.252 185.922 125.18 188.256 125.966 192.175C126.637 195.471 127.002 198.763 129.465 201.537C130.862 203.132 132.875 203.619 134.325 204.869C135.372 205.75 136.146 205.99 136.695 207.107Z" fill="url(#paint22_linear_181_505)"/>
<path d="M138.86 170.284C141.319 167.871 146 166.153 149.55 165.329C154.158 164.239 158.936 163.348 163.625 162.534C169.017 161.603 174.386 160.585 179.733 159.481C181.192 159.182 184.26 158.499 185.333 159.719C182.146 158.945 177.378 160.284 174.308 160.998C170.711 161.829 167.724 163.794 164.152 164.523C159.184 165.545 154.023 165.777 148.99 166.476C145.98 166.892 140.308 167.666 138.86 170.284Z" fill="url(#paint23_linear_181_505)"/>
<path d="M202.701 161.464C204.964 155.031 218.191 150.705 224.623 148.614C230.154 146.815 229.616 142.067 232.887 138.063C235.372 135.021 238.297 132.953 240.254 129.534C242.8 125.125 244.509 121.466 241.87 117.344C240.804 115.669 239.415 108.572 237.162 108.929C240.765 113.703 240.568 120.617 238.42 125.747C237.145 128.8 234.628 131.394 232.891 134.306C231.557 136.717 230.028 139.014 228.318 141.174C226.78 142.989 225.011 145.468 222.642 146.657C219.932 148.013 216.932 147.352 214.03 147.911C205.839 149.432 200.751 153.541 197.126 160.063C199.007 158.945 201.691 157.219 203.956 157.137C203.969 158.671 203.532 160.175 202.701 161.464Z" fill="url(#paint24_linear_181_505)"/>
<g style="mix-blend-mode:soft-light" opacity="0.5">
<path d="M174.407 155.355C175.111 146.665 182.97 141.759 191.771 137.976C194.486 136.809 203.541 131.379 204.918 136.235C205.789 139.291 203.112 143.556 201.459 146.155C199.323 149.517 196.071 152.845 193.443 155.979C192.281 157.352 189.681 160.699 187.2 160.51C186.219 160.432 185.452 159.696 184.665 159.314C183.293 158.607 181.802 158.159 180.268 157.995C178.527 157.771 172.341 158.207 174.407 155.355Z" fill="#9F9FD6"/>
</g>
<g style="mix-blend-mode:soft-light" opacity="0.5">
<path d="M206.63 143.801C208.781 142.467 209.14 139.195 209.25 137.177C209.423 133.745 208.286 130.582 209.683 127.24C211.407 123.149 216.136 119.891 219.744 116.914C222.301 114.793 224.733 112.592 227.352 110.527C228.538 109.587 231.243 106.572 233.069 106.404C235.958 106.136 236.127 111.829 236.102 113.401C236.012 119.043 233.225 124.305 230.347 129.298C225.635 137.476 218.694 143.906 206.63 143.801Z" fill="#9F9FD6"/>
</g>
<g style="mix-blend-mode:soft-light" opacity="0.5">
<path d="M170.674 111.711C172.291 108.883 175.179 106.744 176.756 103.947C178.219 101.368 178.309 98.2254 179.248 95.4892C180.495 91.7515 182.415 88.2735 184.913 85.2269C186.18 83.675 188.169 82.2052 189.083 80.5769C183.87 80.6277 175.539 85.5497 173.387 89.375C171.026 93.5429 170.765 98.082 170.144 102.568C169.781 105.597 169.408 108.782 170.674 111.711Z" fill="#9F9FD6"/>
</g>
<g style="mix-blend-mode:soft-light" opacity="0.5">
<path d="M156.729 258.755C154.308 258.308 154.246 256.239 155.487 254.805C158.138 251.703 164.273 251.014 168.419 250.294C174.223 249.167 180.184 249.099 186.013 250.094C190.12 250.874 193.645 252.133 195.289 255.531C201.591 268.499 162.606 266.339 156.729 258.755Z" fill="#9F9FD6"/>
</g>
<g style="mix-blend-mode:soft-light" opacity="0.5">
<path d="M198.683 253.203C197.476 253.931 197.067 252.007 196.879 251.438C196.086 249.14 196.222 246.623 197.258 244.424C198.42 242.037 201.01 240.31 203.633 238.984C205.503 238.015 209.364 235.931 211.785 236.472C215.396 237.237 210.886 243.532 210.081 244.785C207.24 248.938 203.179 253.188 198.683 253.203Z" fill="#9F9FD6"/>
</g>
<g style="mix-blend-mode:soft-light" opacity="0.5">
<path d="M157.712 169.184C160.071 169.142 162.92 170.367 163.162 172.493C163.265 173.391 161.654 175.354 162.392 175.939C163.129 176.525 166.329 175.514 166.936 175.406C169.79 174.846 172.636 174.318 175.528 173.884C176.316 173.771 180.978 173.711 181.577 173.123C182.175 172.535 181.895 172.9 181.662 172.189C180.966 170.009 176.432 169.929 176.234 167.552C176.151 166.324 179.072 164.547 178.161 163.464C176.742 161.759 170.474 164.466 169.146 164.94C165.193 166.37 161.039 167.554 157.712 169.184Z" fill="#9F9FD6"/>
</g>
<path style="mix-blend-mode:screen" d="M250.761 235.557C251.593 216.65 222.257 200.002 185.236 198.373C148.216 196.744 117.531 210.751 116.699 229.658C115.867 248.565 145.203 265.212 182.224 266.841C219.244 268.47 249.929 254.464 250.761 235.557Z" fill="url(#paint25_radial_181_505)"/>
<path d="M213.771 93.452C212.973 88.8016 212.665 83.4438 213.948 78.8658C214.465 77.0347 214.026 73.9779 215.487 72.5076C216.981 79.4485 216.749 87.6197 213.771 93.452Z" fill="#93FFFF"/>
<path d="M216.886 47.793C215.596 49.3446 215.821 53.5378 217.234 55.1087C220.293 54.0411 218.529 49.792 218.081 47.812L216.886 47.793Z" fill="#93FFFF"/>
<path d="M199.121 111.815C198.639 112.979 199.082 114.243 199.599 115.368C201.185 114.442 202.082 111.902 200.331 110.844L199.121 111.815Z" fill="#93FFFF"/>
<path d="M216.791 174.618C214.067 172.413 213.299 154.912 218.515 156.637C221.682 157.678 221.432 172.444 216.791 174.618Z" fill="#93FFFF"/>
<path d="M200.44 18.313C199.797 20.205 199.501 23.0144 201.294 24.442C203.683 22.5384 203.67 19.8735 201.73 17.8069L200.44 18.313Z" fill="#93FFFF"/>
</g>
<defs>
<radialGradient id="paint0_radial_181_505" cx="0" cy="0" r="1" gradientUnits="userSpaceOnUse" gradientTransform="translate(219.955 220.594) scale(111.822 126.732)">
<stop stop-color="#0B44FF"/>
<stop offset="0.03" stop-color="#0A40F2"/>
<stop offset="0.19" stop-color="#0830B3"/>
<stop offset="0.35" stop-color="#05217C"/>
<stop offset="0.5" stop-color="#031550"/>
<stop offset="0.64" stop-color="#020C2D"/>
<stop offset="0.78" stop-color="#010514"/>
<stop offset="0.9" stop-color="#000105"/>
<stop offset="1"/>
</radialGradient>
<linearGradient id="paint1_linear_181_505" x1="200.37" y1="71.1573" x2="200.37" y2="400.273" gradientUnits="userSpaceOnUse">
<stop stop-color="#FFA274"/>
<stop offset="1" stop-color="#E47745"/>
</linearGradient>
<linearGradient id="paint2_linear_181_505" x1="179.736" y1="161.647" x2="179.736" y2="183.857" gradientUnits="userSpaceOnUse">
<stop stop-color="#950000"/>
<stop offset="0.2" stop-color="#9F1F21"/>
<stop offset="0.64" stop-color="#B96B75"/>
<stop offset="1" stop-color="#D0AEBE"/>
</linearGradient>
<linearGradient id="paint3_linear_181_505" x1="178.945" y1="325.152" x2="178.945" y2="339.043" gradientUnits="userSpaceOnUse">
<stop stop-color="#950000"/>
<stop offset="0.2" stop-color="#9F1F21"/>
<stop offset="0.64" stop-color="#B96B75"/>
<stop offset="1" stop-color="#D0AEBE"/>
</linearGradient>
<linearGradient id="paint4_linear_181_505" x1="168.096" y1="189.256" x2="168.096" y2="200.768" gradientUnits="userSpaceOnUse">
<stop stop-color="#950000"/>
<stop offset="0.2" stop-color="#9F1F21"/>
<stop offset="0.64" stop-color="#B96B75"/>
<stop offset="1" stop-color="#D0AEBE"/>
</linearGradient>
<linearGradient id="paint5_linear_181_505" x1="199.574" y1="209.534" x2="206.833" y2="99.438" gradientUnits="userSpaceOnUse">
<stop stop-color="#00C2FF"/>
<stop offset="1" stop-color="#5663FF"/>
</linearGradient>
<linearGradient id="paint6_linear_181_505" x1="174.132" y1="256.444" x2="179.459" y2="175.653" gradientUnits="userSpaceOnUse">
<stop stop-color="#00C2FF"/>
<stop offset="1" stop-color="#5663FF"/>
</linearGradient>
<linearGradient id="paint7_linear_181_505" x1="163.204" y1="272.387" x2="194.529" y2="107.405" gradientUnits="userSpaceOnUse">
<stop offset="0.01" stop-color="#2BFFFF"/>
<stop offset="1" stop-color="#0039FF"/>
</linearGradient>
<linearGradient id="paint8_linear_181_505" x1="177.435" y1="269.728" x2="198.531" y2="126.706" gradientUnits="userSpaceOnUse">
<stop stop-color="#72FFFF"/>
<stop offset="0.98" stop-color="#008DFF"/>
</linearGradient>
<linearGradient id="paint9_linear_181_505" x1="201.107" y1="120.976" x2="208.33" y2="11.4138" gradientUnits="userSpaceOnUse">
<stop stop-color="#00C2FF"/>
<stop offset="1" stop-color="#5663FF"/>
</linearGradient>
<linearGradient id="paint10_linear_181_505" x1="206.335" y1="99.6977" x2="208.875" y2="61.1826" gradientUnits="userSpaceOnUse">
<stop stop-color="#00F6FF"/>
<stop offset="0.99" stop-color="#5695FF"/>
</linearGradient>
<linearGradient id="paint11_linear_181_505" x1="190.124" y1="135.41" x2="194.138" y2="74.5164" gradientUnits="userSpaceOnUse">
<stop offset="0.01" stop-color="#2C338B"/>
<stop offset="1" stop-color="#1D0A59"/>
</linearGradient>
<linearGradient id="paint12_linear_181_505" x1="174.887" y1="136.496" x2="176.967" y2="104.938" gradientUnits="userSpaceOnUse">
<stop stop-color="#004AFF"/>
<stop offset="1" stop-color="#5663FF"/>
</linearGradient>
<linearGradient id="paint13_linear_181_505" x1="196.971" y1="104.515" x2="198.932" y2="74.763" gradientUnits="userSpaceOnUse">
<stop stop-color="#004AFF"/>
<stop offset="1" stop-color="#5663FF"/>
</linearGradient>
<linearGradient id="paint14_linear_181_505" x1="193.129" y1="173.551" x2="193.82" y2="163.068" gradientUnits="userSpaceOnUse">
<stop stop-color="#004AFF"/>
<stop offset="1" stop-color="#5663FF"/>
</linearGradient>
<radialGradient id="paint15_radial_181_505" cx="0" cy="0" r="1" gradientUnits="userSpaceOnUse" gradientTransform="translate(190.839 186.99) rotate(2.84201) scale(85.151 109.124)">
<stop stop-color="#0025FF"/>
<stop offset="0.16" stop-color="#001DCA"/>
<stop offset="0.39" stop-color="#001383"/>
<stop offset="0.6" stop-color="#000B4B"/>
<stop offset="0.78" stop-color="#000522"/>
<stop offset="0.92" stop-color="#000109"/>
<stop offset="1"/>
</radialGradient>
<radialGradient id="paint16_radial_181_505" cx="0" cy="0" r="1" gradientUnits="userSpaceOnUse" gradientTransform="translate(198.444 119.13) rotate(3.30442) scale(63.9359 109.07)">
<stop stop-color="#0025FF"/>
<stop offset="0.16" stop-color="#001DCA"/>
<stop offset="0.39" stop-color="#001383"/>
<stop offset="0.6" stop-color="#000B4B"/>
<stop offset="0.78" stop-color="#000522"/>
<stop offset="0.92" stop-color="#000109"/>
<stop offset="1"/>
</radialGradient>
<radialGradient id="paint17_radial_181_505" cx="0" cy="0" r="1" gradientUnits="userSpaceOnUse" gradientTransform="translate(190.832 186.99) rotate(2.84201) scale(52.1231 66.7979)">
<stop stop-color="#0090FF"/>
<stop offset="0.16" stop-color="#0072CA"/>
<stop offset="0.39" stop-color="#004A83"/>
<stop offset="0.6" stop-color="#002A4B"/>
<stop offset="0.78" stop-color="#001322"/>
<stop offset="0.92" stop-color="#000509"/>
<stop offset="1"/>
</radialGradient>
<linearGradient id="paint18_linear_181_505" x1="186.77" y1="268.367" x2="197.259" y2="159.108" gradientUnits="userSpaceOnUse">
<stop offset="0.01" stop-color="#2C338B"/>
<stop offset="1" stop-color="#1D0A59"/>
</linearGradient>
<linearGradient id="paint19_linear_181_505" x1="185.988" y1="257.825" x2="190.723" y2="185.993" gradientUnits="userSpaceOnUse">
<stop stop-color="#004AFF"/>
<stop offset="1" stop-color="#5663FF"/>
</linearGradient>
<linearGradient id="paint20_linear_181_505" x1="185.629" y1="182.63" x2="193.551" y2="62.4672" gradientUnits="userSpaceOnUse">
<stop offset="0.01" stop-color="#2C338B"/>
<stop offset="1" stop-color="#1D0A59"/>
</linearGradient>
<linearGradient id="paint21_linear_181_505" x1="204.55" y1="154.128" x2="210.906" y2="57.7265" gradientUnits="userSpaceOnUse">
<stop stop-color="#004AFF"/>
<stop offset="1" stop-color="#5663FF"/>
</linearGradient>
<linearGradient id="paint22_linear_181_505" x1="165.274" y1="213.25" x2="169.08" y2="155.521" gradientUnits="userSpaceOnUse">
<stop offset="0.01" stop-color="#2C338B"/>
<stop offset="1" stop-color="#1D0A59"/>
</linearGradient>
<linearGradient id="paint23_linear_181_505" x1="163.393" y1="176.124" x2="164.312" y2="162.186" gradientUnits="userSpaceOnUse">
<stop stop-color="#004AFF"/>
<stop offset="1" stop-color="#5663FF"/>
</linearGradient>
<linearGradient id="paint24_linear_181_505" x1="220.466" y1="167.149" x2="224.059" y2="112.655" gradientUnits="userSpaceOnUse">
<stop offset="0.01" stop-color="#2C338B"/>
<stop offset="1" stop-color="#1D0A59"/>
</linearGradient>
<radialGradient id="paint25_radial_181_505" cx="0" cy="0" r="1" gradientUnits="userSpaceOnUse" gradientTransform="translate(185.76 230.087) rotate(2.92602) scale(67.2461 34.3469)">
<stop stop-color="#0090FF"/>
<stop offset="0.16" stop-color="#0072CA"/>
<stop offset="0.39" stop-color="#004A83"/>
<stop offset="0.6" stop-color="#002A4B"/>
<stop offset="0.78" stop-color="#001322"/>
<stop offset="0.92" stop-color="#000509"/>
<stop offset="1"/>
</radialGradient>
<clipPath id="clip0_181_505">
<rect width="400" height="400" fill="white"/>
</clipPath>
</defs>
</svg>
