<svg width="109" height="109" viewBox="0 0 109 109" fill="none" xmlns="http://www.w3.org/2000/svg">
<path d="M1 107V108H2H28.25H29.25V107V57.7812C29.25 56.7091 28.9111 55.6477 28.262 54.8364C27.6083 54.0192 26.6676 53.5 25.625 53.5H4.625C3.58241 53.5 2.64171 54.0192 1.98798 54.8364C1.33888 55.6477 1 56.7091 1 57.7812V107Z" fill="url(#paint0_linear_2236_176)" stroke="#EAE0DA" stroke-width="2"/>
<path d="M40.375 107V108H41.375H67.625H68.625V107V5.28125C68.625 4.20911 68.2861 3.14774 67.637 2.33636C66.9833 1.5192 66.0426 1 65 1H44C42.9574 1 42.0167 1.5192 41.363 2.33636C40.7139 3.14774 40.375 4.20911 40.375 5.28125V107Z" fill="url(#paint1_linear_2236_176)" stroke="#EAE0DA" stroke-width="2"/>
<path d="M79.75 107V108H80.75H107H108V107V31.5312C108 30.4591 107.661 29.3977 107.012 28.5864C106.358 27.7692 105.418 27.25 104.375 27.25H83.375C82.3324 27.25 81.3917 27.7692 80.738 28.5864C80.0889 29.3977 79.75 30.4591 79.75 31.5312V107Z" fill="url(#paint2_linear_2236_176)" stroke="#EAE0DA" stroke-width="2"/>
<defs>
<linearGradient id="paint0_linear_2236_176" x1="2" y1="80.75" x2="28.25" y2="80.75" gradientUnits="userSpaceOnUse">
<stop stop-color="#ECD851"/>
<stop offset="1" stop-color="#6B9433"/>
</linearGradient>
<linearGradient id="paint1_linear_2236_176" x1="41.375" y1="54.5" x2="67.625" y2="54.5" gradientUnits="userSpaceOnUse">
<stop stop-color="#ECD851"/>
<stop offset="1" stop-color="#6B9433"/>
</linearGradient>
<linearGradient id="paint2_linear_2236_176" x1="80.75" y1="67.625" x2="107" y2="67.625" gradientUnits="userSpaceOnUse">
<stop stop-color="#ECD851"/>
<stop offset="1" stop-color="#6B9433"/>
</linearGradient>
</defs>
</svg>
