<svg width="27" height="35" viewBox="0 0 27 35" fill="none" xmlns="http://www.w3.org/2000/svg">
<g clip-path="url(#clip0_205_590)">
<path fill-rule="evenodd" clip-rule="evenodd" d="M15.6939 1.37841C14.5045 0.0977796 12.4952 0.0978304 11.306 1.37851C9.85106 2.94519 7.16592 5.98465 4.83492 9.4508C2.50899 12.9094 0.349241 16.8485 0.387212 21.1271C0.390558 21.5055 0.410692 22.0366 0.47666 22.6703C0.607686 23.9289 0.924159 25.637 1.68136 27.368C2.4419 29.1066 3.66251 30.9008 5.60972 32.2553C7.56577 33.6161 10.1481 34.4585 13.4999 34.4585C16.8518 34.4585 19.4341 33.6161 21.3903 32.2553C23.3374 30.9008 24.5583 29.1067 25.319 27.3682C26.0762 25.6372 26.3929 23.9289 26.5239 22.6703C26.5899 22.0368 26.6101 21.5057 26.6135 21.1272C26.6517 16.8486 24.4914 12.9092 22.1655 9.4507C19.8342 5.98454 17.1489 2.94509 15.6939 1.37841ZM7.39349 11.1715C9.56261 7.94602 12.0816 5.07895 13.4999 3.54715C14.9184 5.07894 17.4376 7.94601 19.6069 11.1715C21.5712 14.092 23.5627 17.4701 23.5303 21.0996C23.5277 21.3956 23.5117 21.8282 23.4572 22.3508C23.3475 23.4047 23.0858 24.7799 22.4942 26.1322C21.9057 27.477 21.0066 28.7663 19.6294 29.7242C18.2614 30.676 16.3148 31.3751 13.4999 31.3751C10.685 31.3751 8.73862 30.676 7.37052 29.7242C5.99356 28.7663 5.09451 27.477 4.50624 26.1322C3.91462 24.7799 3.65312 23.4049 3.5434 22.351C3.489 21.8282 3.47304 21.3958 3.47042 21.0998C3.43823 17.4702 5.42928 14.0922 7.39349 11.1715Z" fill="#42649F"/>
</g>
<defs>
<clipPath id="clip0_205_590">
<rect width="27" height="35" fill="white"/>
</clipPath>
</defs>
</svg>
