<svg width="51" height="51" viewBox="0 0 51 51" fill="none" xmlns="http://www.w3.org/2000/svg">
<g clip-path="url(#clip0_205_583)">
<path d="M20.5 13H20.525M30.5 13H30.525M3 30.5L48 48M48 30.5L3 48M40.5 16.75C40.5 9.15608 33.7843 3 25.5 3C17.2157 3 10.5 9.15608 10.5 16.75C10.5 19.2545 16.7237 21.6025 18 23.625C19.7746 26.437 18 30.5 20.5 30.5C20.5 30.5 23.7467 30.5 25.5 30.5C27.2533 30.5 29.25 30.5 30.5 30.5C33 30.5 31.2255 26.437 33 23.625C34.2763 21.6025 40.5 19.2545 40.5 16.75Z" stroke="#143959" stroke-width="5" stroke-linecap="round" stroke-linejoin="round"/>
</g>
<defs>
<clipPath id="clip0_205_583">
<rect width="51" height="51" fill="white"/>
</clipPath>
</defs>
</svg>
