<svg width="82" height="82" viewBox="0 0 82 82" fill="none" xmlns="http://www.w3.org/2000/svg">
<g clip-path="url(#clip0_205_623)">
<path d="M40.6758 81.3516C63.1404 81.3516 81.3516 63.1404 81.3516 40.6758C81.3516 18.2112 63.1404 0 40.6758 0C18.2112 0 0 18.2112 0 40.6758C0 63.1404 18.2112 81.3516 40.6758 81.3516Z" fill="url(#paint0_radial_205_623)"/>
<path d="M66.0206 17.5225H60.0972L22.582 46.0627L30.48 52.4049L66.0206 22.2792V17.5225Z" fill="#C4CCCC"/>
<path d="M66.0248 17.5225L26.5352 49.2338L30.4841 52.4049L66.0248 22.2792V17.5225Z" fill="#A3AFAF"/>
<path d="M18.6338 46.0639L30.4802 55.5768L32.4543 53.9915L20.608 44.4785L18.6338 46.0639Z" fill="#C4CCCC"/>
<path d="M8.7627 53.9906L20.6091 63.5036L22.5832 61.9183L10.7369 52.4053L8.7627 53.9906Z" fill="#C4CCCC"/>
<path d="M21.5973 48.4395L13.6992 54.7818L19.6231 59.5389L27.5212 53.1965L21.5973 48.4395Z" fill="#A3AFAF"/>
<path d="M14.6875 17.5225V22.2792L50.2281 52.4049L58.1261 46.0627L20.6109 17.5225H14.6875Z" fill="#E1E5E5"/>
<path d="M50.2241 55.5758L62.0705 46.0628L60.0963 44.4775L48.25 53.9905L50.2241 55.5758Z" fill="#E1E5E5"/>
<path d="M60.103 63.5027L71.9494 53.9897L69.9753 52.4043L58.1289 61.9173L60.103 63.5027Z" fill="#E1E5E5"/>
<path d="M14.6875 17.5225L54.1771 49.2338L58.1261 46.0627L20.6109 17.5225H14.6875Z" fill="#C0E1FD"/>
<path d="M53.1836 53.1984L61.0816 59.5408L67.0055 54.7838L59.1075 48.4414L53.1836 53.1984Z" fill="#C4CCCC"/>
<path d="M27.5211 53.1971L21.5977 48.4404V57.9538L27.5211 53.1971Z" fill="#8D9999"/>
<path d="M59.1109 48.4404L53.1875 53.1971L59.1109 57.9538V48.4404Z" fill="#A3AFAF"/>
<path d="M33.207 50.0937L40.3527 44.0369L36.7769 41.0068L33.207 43.8735V50.0937Z" fill="#8D9999"/>
<path d="M36.7691 41.0063L33.1992 37.9795V43.873L36.7691 41.0063Z" fill="#A3AFAF"/>
<path d="M36.7691 41.0063L33.1992 37.9795V43.873L36.7691 41.0063Z" fill="#A3AFAF"/>
</g>
<defs>
<radialGradient id="paint0_radial_205_623" cx="0" cy="0" r="1" gradientUnits="userSpaceOnUse" gradientTransform="translate(40.6758 40.6758) rotate(90) scale(40.6758)">
<stop stop-color="#0F1C72"/>
<stop offset="1" stop-color="#1D45D8"/>
</radialGradient>
<clipPath id="clip0_205_623">
<rect width="82" height="82" fill="white"/>
</clipPath>
</defs>
</svg>
