<svg width="84" height="86" viewBox="0 0 84 86" fill="none" xmlns="http://www.w3.org/2000/svg">
<path d="M63.7382 12.21L45.8771 51.354L13.8369 69.1633L21.7561 77.8735L63.7688 72.9632C68.0438 72.4947 71.2935 68.8313 71.3199 64.5083L71.6831 24.8061C71.7012 22.3471 70.8085 19.9629 69.1319 18.1272L63.7382 12.21Z" fill="url(#paint0_linear_205_640)"/>
<path d="M63.7382 12.21L45.8771 51.354L13.8369 69.1633L21.7561 77.8735L63.7688 72.9632C68.0438 72.4947 71.2935 68.8313 71.3199 64.5083L71.6831 24.8061C71.7012 22.3471 70.8085 19.9629 69.1319 18.1272L63.7382 12.21Z" fill="url(#paint1_linear_205_640)"/>
<path d="M69.6397 18.7527C69.4972 18.537 69.2758 18.3424 69.1334 18.1267L62.2845 10.5684L59.2865 22.1192L45.8787 51.3534L29.5138 60.3928L23.6729 67.9663L27.7244 74.2432L61.8455 70.5165C66.0416 70.0692 69.2334 66.5059 69.2809 62.2618L69.6397 18.7527Z" fill="#EAE0DA"/>
<path d="M58.2307 9.96222L26.8844 13.6224L17.0499 14.8189L15.5867 68.1021L13.8398 69.1625L15.1738 70.6669L58.808 65.4913C62.409 65.0342 65.0962 62.1139 65.2129 58.4437L66.3063 17.3611C66.3905 12.9379 62.5847 9.47258 58.2307 9.96222Z" fill="url(#paint2_linear_205_640)"/>
<path d="M15.3173 13.4212L13.8359 69.1635L23.6704 67.967L25.1729 12.3037L15.3173 13.4212Z" fill="url(#paint3_linear_205_640)"/>
<path d="M57.0922 8.57354L25.1622 12.8979L24.1855 67.9971L57.5904 64.1239C61.1915 63.6667 63.8786 60.7464 63.9953 57.0762L65.0889 15.9936C65.2521 11.5493 61.4461 8.0839 57.0922 8.57354Z" fill="url(#paint4_linear_205_640)"/>
<path d="M57.0922 8.57354L25.1622 12.8979L24.1855 67.9971L57.5904 64.1239C61.1915 63.6667 63.8786 60.7464 63.9953 57.0762L65.0889 15.9936C65.2521 11.5493 61.4461 8.0839 57.0922 8.57354Z" fill="url(#paint5_linear_205_640)"/>
<path d="M56.4979 8.56386L25.1727 12.303L25.0885 16.7261L57.0665 12.8967C58.2142 12.7584 59.0363 13.2997 59.3789 13.6311C59.7216 13.9624 60.3491 14.7251 60.3294 15.9151L59.2148 56.9188C59.1374 58.209 58.2647 59.3737 57.0014 59.7122C56.8435 59.7545 56.6856 59.7968 56.6066 59.818L23.8179 63.78L23.6914 68.0452L57.0963 64.1719C60.6973 63.7148 63.3845 60.7945 63.5012 57.1243L64.5946 16.0417C64.6789 11.6186 60.8519 8.07422 56.4979 8.56386Z" fill="url(#paint6_linear_205_640)"/>
<path d="M24.6713 69.4768L15.1738 70.6676L13.8398 69.1633L23.6743 67.9668L24.6713 69.4768Z" fill="#0F1387"/>
<defs>
<linearGradient id="paint0_linear_205_640" x1="2.72571" y1="21.8022" x2="71.5556" y2="61.7627" gradientUnits="userSpaceOnUse">
<stop stop-color="#136199"/>
<stop offset="1" stop-color="#2060B4"/>
</linearGradient>
<linearGradient id="paint1_linear_205_640" x1="-15.7861" y1="29.5555" x2="22.3481" y2="96.8568" gradientUnits="userSpaceOnUse">
<stop stop-color="#102369"/>
<stop offset="1" stop-color="#222F81"/>
</linearGradient>
<linearGradient id="paint2_linear_205_640" x1="8.20521" y1="48.1337" x2="70.406" y2="31.467" gradientUnits="userSpaceOnUse">
<stop stop-color="#133999"/>
<stop offset="1" stop-color="#2040B4"/>
</linearGradient>
<linearGradient id="paint3_linear_205_640" x1="12.3958" y1="14.204" x2="26.5918" y2="67.1842" gradientUnits="userSpaceOnUse">
<stop stop-color="#19E5F8"/>
<stop offset="1" stop-color="#662BDC"/>
</linearGradient>
<linearGradient id="paint4_linear_205_640" x1="64.3028" y1="69.5626" x2="27.864" y2="16.0801" gradientUnits="userSpaceOnUse">
<stop stop-color="#132C99"/>
<stop offset="1" stop-color="#204FB4"/>
</linearGradient>
<linearGradient id="paint5_linear_205_640" x1="-4.46024" y1="16.9291" x2="36.329" y2="79.7643" gradientUnits="userSpaceOnUse">
<stop stop-color="#1D1069"/>
<stop offset="1" stop-color="#227181"/>
</linearGradient>
<linearGradient id="paint6_linear_205_640" x1="35.5777" y1="9.515" x2="50.7015" y2="65.9579" gradientUnits="userSpaceOnUse">
<stop stop-color="#19DAF8"/>
<stop offset="1" stop-color="#402BDC"/>
</linearGradient>
</defs>
</svg>
