<svg width="25" height="36" viewBox="0 0 25 36" fill="none" xmlns="http://www.w3.org/2000/svg">
<g clip-path="url(#clip0_205_588)">
<path d="M24.6685 12.9246C24.3869 12.293 23.9305 11.7567 23.354 11.38C22.7776 11.0032 22.1056 10.8021 21.4187 10.8007H18.1866L20.5615 4.93286C20.7737 4.39407 20.8537 3.81161 20.7946 3.235C20.7355 2.65839 20.5392 2.10469 20.2223 1.62097C19.8835 1.11986 19.428 0.710135 18.8957 0.42771C18.3633 0.145286 17.7704 -0.0012216 17.1688 0.00102707H9.41911C8.68665 -0.0166097 7.96654 0.193265 7.35643 0.602186C6.74632 1.01111 6.27574 1.59929 6.00853 2.28695L0.240892 16.6865C0.0343556 17.2242 -0.0410092 17.8041 0.0211398 18.3773C0.0832888 18.9505 0.281133 19.5003 0.598022 19.9803C0.936769 20.4815 1.39227 20.8912 1.92462 21.1736C2.45697 21.456 3.0499 21.6025 3.65148 21.6003H8.57986L5.34784 33.7319C5.24016 34.1278 5.26999 34.5489 5.43239 34.9254C5.59478 35.3019 5.87997 35.6111 6.24066 35.8018C6.51912 35.9364 6.82471 36.0042 7.13349 35.9998C7.39141 35.9998 7.64627 35.9435 7.88054 35.8348C8.11481 35.726 8.32293 35.5674 8.49058 35.3698L24.2043 16.7045C24.6246 16.1812 24.8909 15.5496 24.9729 14.8815C25.055 14.2133 24.9495 13.5354 24.6685 12.9246Z" fill="#143959"/>
</g>
<defs>
<clipPath id="clip0_205_588">
<rect width="25" height="36" fill="white"/>
</clipPath>
</defs>
</svg>
