<svg width="93" height="67" viewBox="0 0 93 67" fill="none" xmlns="http://www.w3.org/2000/svg">
<g clip-path="url(#clip0_205_650)">
<path d="M79.188 41.4323C85.0931 41.4323 89.8812 36.6473 89.8812 30.7422C89.8812 24.8371 85.093 20.0488 79.188 20.0488C73.2843 20.0488 68.4961 24.8371 68.4961 30.7422C68.4963 36.6473 73.2843 41.4323 79.188 41.4323Z" fill="url(#paint0_linear_205_650)"/>
<path d="M92.8765 51.737C92.4 48.8739 90.0334 44.8669 88.2421 43.0769C88.0061 42.8397 86.9515 42.7848 86.6667 42.9614C84.4888 44.3008 81.9306 45.0891 79.1849 45.0891C76.4423 45.0891 73.8839 44.3008 71.7059 42.9614C71.4198 42.7848 70.3666 42.8397 70.1307 43.0769C69.6299 43.5777 69.0835 44.2443 68.5508 45.0173C69.9921 47.7311 71.1352 50.6137 71.5477 53.096C71.96 55.5845 71.8261 57.9403 71.1593 60.0881C73.5276 60.9449 76.3675 61.3209 79.1848 61.3209C86.533 61.3209 94.0529 58.773 92.8765 51.737Z" fill="url(#paint1_linear_205_650)"/>
<path d="M46.2269 34.7154C55.797 34.7154 63.5559 26.9564 63.5559 17.3865C63.5559 7.81951 55.797 0.0605469 46.2269 0.0605469C36.6584 0.0605469 28.9023 7.81951 28.9023 17.3865C28.9023 26.9564 36.6582 34.7154 46.2269 34.7154Z" fill="url(#paint2_linear_205_650)"/>
<path d="M60.8975 37.37C60.5215 36.9956 58.814 36.8999 58.3497 37.1873C54.8172 39.3608 50.6715 40.6332 46.2242 40.6332C41.7802 40.6332 37.6326 39.3608 34.1019 37.1873C33.6378 36.8997 31.9302 36.9956 31.5542 37.37C28.6441 40.277 24.8088 46.7757 24.0371 51.4086C22.1346 62.8204 34.3242 66.9404 46.2242 66.9404C58.1275 66.9404 70.3168 62.8204 68.4143 51.4086C67.6427 46.7757 63.8074 40.277 60.8975 37.37Z" fill="url(#paint3_linear_205_650)"/>
<path d="M13.8145 39.2262C19.7181 39.2262 24.5062 34.4413 24.5062 28.5361C24.5062 22.631 19.7181 17.8428 13.8145 17.8428C7.90914 17.8428 3.12109 22.631 3.12109 28.5361C3.12109 34.4413 7.90914 39.2262 13.8145 39.2262Z" fill="black"/>
<path d="M13.8145 39.2262C19.7181 39.2262 24.5062 34.4413 24.5062 28.5361C24.5062 22.631 19.7181 17.8428 13.8145 17.8428C7.90914 17.8428 3.12109 22.631 3.12109 28.5361C3.12109 34.4413 7.90914 39.2262 13.8145 39.2262Z" fill="url(#paint4_linear_205_650)"/>
<path d="M20.9058 50.889C21.3443 48.2819 22.5815 45.2121 24.1325 42.3736C23.7002 41.7831 23.2681 41.2687 22.8692 40.8698C22.6332 40.6326 21.5801 40.5778 21.294 40.7543C19.1159 42.0937 16.5575 42.8821 13.8137 42.8821C11.0694 42.8821 8.50941 42.0937 6.33317 40.7543C6.04836 40.5778 4.9923 40.6326 4.75635 40.8698C2.96047 42.6597 0.600046 46.6669 0.121967 49.5299C-1.05288 56.566 6.46558 59.1136 13.8137 59.1136C16.436 59.1136 19.0842 58.7909 21.3443 58.0529C20.6321 55.8614 20.4813 53.4505 20.9058 50.889Z" fill="black"/>
<path d="M20.9058 50.889C21.3443 48.2819 22.5815 45.2121 24.1325 42.3736C23.7002 41.7831 23.2681 41.2687 22.8692 40.8698C22.6332 40.6326 21.5801 40.5778 21.294 40.7543C19.1159 42.0937 16.5575 42.8821 13.8137 42.8821C11.0694 42.8821 8.50941 42.0937 6.33317 40.7543C6.04836 40.5778 4.9923 40.6326 4.75635 40.8698C2.96047 42.6597 0.600046 46.6669 0.121967 49.5299C-1.05288 56.566 6.46558 59.1136 13.8137 59.1136C16.436 59.1136 19.0842 58.7909 21.3443 58.0529C20.6321 55.8614 20.4813 53.4505 20.9058 50.889Z" fill="url(#paint5_linear_205_650)"/>
</g>
<defs>
<linearGradient id="paint0_linear_205_650" x1="79.1886" y1="20.0488" x2="79.1886" y2="41.4323" gradientUnits="userSpaceOnUse">
<stop stop-color="#300F72"/>
<stop offset="1" stop-color="#1D3FD8"/>
</linearGradient>
<linearGradient id="paint1_linear_205_650" x1="80.7748" y1="42.8574" x2="80.7748" y2="61.3209" gradientUnits="userSpaceOnUse">
<stop stop-color="#240F72"/>
<stop offset="1" stop-color="#1D3FD8"/>
</linearGradient>
<linearGradient id="paint2_linear_205_650" x1="46.2291" y1="0.0605469" x2="46.2291" y2="34.7154" gradientUnits="userSpaceOnUse">
<stop stop-color="#1990F8"/>
<stop offset="1" stop-color="#2B5DDC"/>
</linearGradient>
<linearGradient id="paint3_linear_205_650" x1="46.2257" y1="37.0195" x2="46.2257" y2="66.9404" gradientUnits="userSpaceOnUse">
<stop stop-color="#1990F8"/>
<stop offset="1" stop-color="#2B7EDC"/>
</linearGradient>
<linearGradient id="paint4_linear_205_650" x1="13.8136" y1="17.8428" x2="13.8136" y2="39.2262" gradientUnits="userSpaceOnUse">
<stop stop-color="#210F72"/>
<stop offset="1" stop-color="#1D23D8"/>
</linearGradient>
<linearGradient id="paint5_linear_205_650" x1="12.0662" y1="40.6504" x2="12.0662" y2="59.1136" gradientUnits="userSpaceOnUse">
<stop stop-color="#290F72"/>
<stop offset="1" stop-color="#1D4CD8"/>
</linearGradient>
<clipPath id="clip0_205_650">
<rect width="93" height="67" fill="white"/>
</clipPath>
</defs>
</svg>
