<svg width="31" height="35" viewBox="0 0 31 35" fill="none" xmlns="http://www.w3.org/2000/svg">
<g clip-path="url(#clip0_205_585)">
<path d="M30.2894 18.1865C30.0563 9.96909 22.9462 3.79144 14.7287 5.30671C7.73515 6.58886 3.48074 14.1069 6.62784 20.5177C8.14311 23.6648 11.9313 25.0635 15.2532 24.3059C18.75 23.5483 20.615 19.3521 19.2745 16.205C18.5169 14.4566 15.6029 15.2143 16.3605 17.0209C17.7593 20.3429 14.2625 22.3244 11.4068 21.1005C9.25043 20.168 8.55107 17.662 8.55107 15.5057C8.60935 10.2022 14.787 7.3465 19.4494 8.16242C25.3939 9.26973 27.9582 16.0885 27.0257 21.4502C26.035 27.2199 20.7315 31.0663 15.195 32.0571C13.2717 32.4068 14.0876 35.3208 16.0109 34.9711C24.2283 33.4558 30.5225 26.6954 30.2894 18.1865Z" fill="#143959"/>
<path d="M23.6448 13.6991C19.9149 7.17174 8.72518 10.8434 11.406 18.478C12.0471 20.2847 14.9611 19.527 14.32 17.6621C13.3293 14.8064 15.3108 12.8249 18.3413 13.2328C20.6725 13.5825 21.8381 16.2051 22.0712 18.2449C22.9454 25.0636 15.0194 28.6187 9.59938 26.2292C4.47077 23.9563 2.19786 18.1283 3.42173 12.8831C4.70388 7.63798 9.65766 3.44184 15.0194 3.03388C16.9426 2.85904 16.9426 -0.11322 15.0194 0.00333951C6.97679 0.644416 0.624307 7.23002 0.04151 15.1561C-0.599567 23.0821 6.27744 30.3671 14.2618 30.0757C22.4209 29.7843 27.6661 20.6926 23.6448 13.6991Z" fill="#143959"/>
</g>
<defs>
<clipPath id="clip0_205_585">
<rect width="31" height="35" fill="white"/>
</clipPath>
</defs>
</svg>
